<svg width="61" height="33" viewBox="0 0 61 33" fill="none" xmlns="http://www.w3.org/2000/svg">
<g clip-path="url(#clip0_16:3449)">
<path d="M54.4303 1.3983C51.2186 -0.405844 45.9384 0.209512 42.3926 0.089715C38.327 -0.0516452 34.2599 -0.0259533 30.1912 0.166786C22.5563 0.531767 12.9983 0.595656 5.90899 3.68761C2.10867 5.3452 0.461987 9.03294 0.0864974 12.9423C-0.0674772 14.546 0.0221738 16.2056 0.0663963 17.8141C0.106599 19.2205 0.215141 21.2858 0.293938 22.701C0.405298 24.7108 0.695961 25.0286 1.46543 26.4654C2.81301 28.9867 5.13148 28.9923 7.41215 28.6856C7.67474 27.9176 8.19497 27.2624 8.88575 26.8298C9.57653 26.3972 10.3959 26.2135 11.2068 26.3092C11.984 26.1922 12.7864 26.205 13.3472 26.7118C13.8103 27.1306 13.9699 27.7815 14.0475 28.4005C19.6513 28.6045 25.2937 28.4927 30.8923 28.5694C34.5764 28.6197 38.2811 28.7487 41.9825 28.7826C42.1337 27.7264 42.631 26.6483 43.6075 26.239L42.7938 27.0971C43.9259 25.9914 45.7133 25.7202 47.2373 26.1615C47.9955 26.3811 48.753 26.8068 49.081 27.5192C49.2507 27.8882 49.2856 28.2815 49.2334 28.6772C49.9592 28.645 50.684 28.6042 51.4079 28.5546C53.7533 28.3929 56.387 28.0918 58.3629 26.7042C60.2524 25.376 60.8977 23.2784 60.9885 20.9763C61.1091 17.9051 60.2444 14.4705 60.0305 12.0155C59.6562 7.77548 58.3842 3.61933 54.4303 1.3983ZM12.5536 7.62134C12.4672 9.13876 12.5874 10.7021 12.5994 12.2395C12.611 12.9556 12.5821 13.6718 12.513 14.3847C11.2338 14.5931 7.23446 15.0955 6.48991 13.6547C6.2487 13.1907 6.2487 12.6436 6.2889 12.1237C6.57635 8.23949 8.93582 3.82059 13.0618 2.97562C12.6139 3.06707 12.5761 7.22361 12.5536 7.62134ZM24.2175 11.9097C24.236 12.6249 24.2649 13.34 24.279 14.0552C20.7782 14.1287 17.2806 14.2317 13.7862 14.3643C13.742 12.8521 13.549 11.3414 13.4618 9.83239C13.4063 8.87002 13.3766 7.90406 13.416 6.9401C13.4345 6.48886 13.4702 6.03842 13.5261 5.58998C13.5289 5.57042 13.535 5.52689 13.5386 5.50214C13.5458 5.45142 13.5539 5.40071 13.5619 5.35039C13.5804 5.23672 13.6006 5.12318 13.6226 5.00977C13.6628 4.79733 13.7131 4.58569 13.7705 4.37684C13.8304 4.15722 13.9 3.94038 13.9816 3.72794C13.9981 3.68522 14.0162 3.64289 14.0327 3.59976C14.0447 3.57421 14.0556 3.54825 14.0676 3.52229C14.1124 3.42539 14.1601 3.32969 14.2108 3.23518C14.3044 3.06187 14.4182 2.90534 14.5247 2.74122C14.696 2.71686 14.8649 2.69449 15.0297 2.67333C18.108 2.28319 22.7292 1.93339 25.795 1.72375C25.0666 2.85463 24.7032 4.24706 24.4969 5.53728C24.1604 7.6441 24.162 9.78407 24.2175 11.9097ZM36.238 12.2247C36.2181 12.529 36.1913 12.8328 36.1576 13.136C36.1483 13.2158 36.1383 13.2957 36.1278 13.3784V13.3832C36.1226 13.4207 36.1174 13.4582 36.1118 13.4958C36.0912 13.6331 36.0687 13.7697 36.0442 13.9063C32.4968 13.9244 28.9492 13.9664 25.4015 14.0325C25.3753 12.4539 25.2909 10.8778 25.3174 9.2969C25.3292 8.25806 25.3985 7.22066 25.5249 6.18937C25.5345 6.12428 25.5337 6.12787 25.5309 6.14664C25.5309 6.13307 25.5345 6.11949 25.5365 6.10671C25.5454 6.04601 25.5542 5.98691 25.5639 5.92462C25.5836 5.79683 25.6041 5.66905 25.6274 5.54207C25.6708 5.29928 25.7195 5.05769 25.7753 4.8177C25.879 4.35825 26.0133 3.90615 26.1774 3.46439C26.202 3.40023 26.2271 3.33634 26.2525 3.27271L26.2755 3.21681L26.2835 3.19924C26.335 3.08344 26.3884 2.96843 26.4443 2.85542C26.5524 2.64097 26.6732 2.43309 26.8061 2.23288C26.8672 2.14104 26.9344 2.05399 26.9975 1.96374C27.0128 1.94457 27.028 1.9238 27.0437 1.90663C27.0839 1.85871 27.1241 1.81199 27.1643 1.76567C27.2045 1.71935 27.2524 1.67064 27.2978 1.62431C28.3266 1.55803 28.9638 1.52089 28.9638 1.52089C30.9259 1.40508 32.8898 1.33121 34.8554 1.29926C34.9715 1.47149 35.0755 1.65148 35.1666 1.83795C35.1907 1.88667 35.214 1.93578 35.2365 1.9853C35.2478 2.01006 35.28 2.08673 35.2796 2.08433C35.323 2.19215 35.3652 2.30036 35.4038 2.41018C35.487 2.64658 35.559 2.88697 35.6225 3.12896C35.7508 3.62794 35.8512 4.13359 35.9232 4.64359L35.9421 4.77776C35.9421 4.78735 35.9445 4.79613 35.9445 4.79813C35.9489 4.83167 35.9534 4.86522 35.9574 4.89836C35.9739 5.03014 35.9887 5.16231 36.0028 5.29448C36.0277 5.53115 36.0492 5.76835 36.0671 6.00608C36.2283 8.07617 36.3759 10.1526 36.2392 12.2255L36.238 12.2247ZM46.4494 10.631C46.4408 10.9406 46.4242 11.2496 46.3995 11.5579C46.3888 11.6896 46.3762 11.8211 46.3617 11.9524C46.3541 12.0227 46.346 12.0934 46.3376 12.1636C46.3332 12.1984 46.3284 12.2331 46.3243 12.2679C46.3243 12.2679 46.3243 12.2703 46.3243 12.2711C46.3243 12.2719 46.3223 12.2842 46.3211 12.2922C46.2502 12.8002 46.1441 13.3026 46.0035 13.7961C43.2637 13.8568 41.0349 13.8943 40.5802 13.8943C39.4476 13.8943 38.3148 13.8966 37.1819 13.9011C37.2459 13.4918 37.2913 13.0793 37.3271 12.67C37.428 11.5207 37.432 10.3635 37.3918 9.21104C37.3568 8.20874 37.276 7.20924 37.2065 6.20893C37.1333 5.15991 37.0127 4.1053 36.7691 3.08064C36.6259 2.47926 36.4354 1.85232 36.1491 1.28129C38.4672 1.26026 40.7855 1.28688 43.1041 1.36116C43.1898 1.40109 43.2742 1.44542 43.3562 1.49334C43.4548 1.55031 43.5504 1.61207 43.6428 1.67862C43.6605 1.691 43.6778 1.70418 43.6951 1.71855C43.7458 1.76088 43.7976 1.80201 43.8471 1.84554C44.0274 2.00466 44.1956 2.17698 44.35 2.36106C44.3932 2.40583 44.4325 2.45419 44.4674 2.50562C44.3773 2.34828 44.4839 2.52878 44.5128 2.56831C44.5952 2.68092 44.6736 2.79632 44.7484 2.91412C44.8919 3.14067 45.0236 3.37431 45.1432 3.61414C45.2054 3.73819 45.2649 3.86384 45.3217 3.9911C45.3362 4.02344 45.3498 4.05579 45.3643 4.08813V4.09013C45.3904 4.15482 45.4178 4.21951 45.4447 4.2846C45.5567 4.56945 45.6578 4.85803 45.7478 5.15033C45.9316 5.74958 46.0783 6.35942 46.1872 6.97643C46.2124 7.11779 46.236 7.25955 46.258 7.40171C46.2701 7.47918 46.2816 7.55691 46.2926 7.63491C46.295 7.65209 46.3014 7.7024 46.3034 7.71478C46.3034 7.70799 46.2998 7.68683 46.2938 7.6421C46.3006 7.69402 46.3075 7.74593 46.3139 7.79824C46.353 8.11078 46.384 8.42424 46.4068 8.73864C46.4515 9.36824 46.4657 9.99931 46.4494 10.6318V10.631ZM58.5635 13.1328C56.3291 13.243 50.0973 13.7777 46.744 13.856C46.8108 13.5848 46.8647 13.3129 46.9117 13.0453C47.1238 11.78 47.1933 10.4952 47.1187 9.21464C47.048 7.8777 46.8526 6.53438 46.486 5.24457C46.1591 4.09452 45.6944 2.93449 44.9627 1.97651C44.8368 1.81159 44.7026 1.65147 44.5607 1.49733C48.1411 1.56601 53.8663 0.866799 56.1618 3.92002C57.1745 5.26733 58.1398 7.10821 58.5104 8.83887C58.5092 8.88864 58.513 8.9384 58.5217 8.98742C58.5788 9.28691 58.6278 9.58641 58.6709 9.88949C58.6741 9.91106 58.6773 9.93302 58.6801 9.95458C58.8188 10.9906 58.8978 12.0336 58.9169 13.0785C58.8017 13.1105 58.6831 13.129 58.5635 13.1336V13.1328Z" fill="#79C3C2"/>
<path d="M13.3477 26.8692C12.7869 26.3595 11.9844 26.347 11.2073 26.4643C10.3963 26.3679 9.57689 26.5528 8.88608 26.9879C8.19526 27.4231 7.67502 28.0821 7.41242 28.8547C7.33203 29.0857 7.2761 29.3245 7.24557 29.5672C7.20938 29.8596 7.211 30.1641 7.31352 30.4405C7.47433 30.8686 7.85185 31.1739 8.23459 31.4242C9.12913 32.0082 10.1764 32.4175 11.2439 32.3653C12.3113 32.3131 13.3883 31.7318 13.8382 30.763C14.147 30.0986 14.1402 29.3322 14.0529 28.6048L14.0481 28.5679C13.9717 27.9453 13.8109 27.2905 13.3477 26.8692Z" fill="#592E2E"/>
<path d="M13.8025 26.4149C13.1773 25.8683 12.3768 25.7064 11.5643 25.7783C11.4594 25.7875 11.3557 25.8008 11.2515 25.8148L11.1659 25.8265C11.0959 25.8429 11.0807 25.8425 11.1209 25.8265C11.1824 25.8381 11.0618 25.81 11.0405 25.8084C10.8517 25.7959 10.6623 25.7984 10.474 25.8156C10.0722 25.8466 9.67683 25.9343 9.29961 26.0759C7.761 26.6784 6.5987 28.1767 6.58021 29.8641C6.57016 30.8093 7.13262 31.4672 7.88323 31.9633C8.54297 32.3995 9.29439 32.7501 10.0727 32.9076C11.5896 33.2137 13.2279 32.7827 14.1587 31.4869C14.693 30.743 14.8019 29.779 14.7247 28.8897C14.6476 28.0003 14.4771 27.056 13.8001 26.4165C13.5556 26.1852 13.1299 26.1559 12.8902 26.4165C12.6599 26.6672 12.6293 27.0785 12.8902 27.3255C12.9434 27.3747 12.9934 27.427 13.0402 27.4822C13.0876 27.5392 13.0402 27.4822 13.033 27.4741C13.0559 27.5079 13.0788 27.542 13.0997 27.577C13.1371 27.6388 13.1697 27.7031 13.201 27.7678C13.2324 27.8324 13.201 27.7678 13.1978 27.7569C13.2171 27.8055 13.2344 27.8549 13.2505 27.9047C13.293 28.0353 13.3279 28.1682 13.355 28.3028C13.3699 28.3755 13.3827 28.4486 13.3952 28.5217C13.3976 28.5378 13.4165 28.6679 13.4061 28.5928C13.3972 28.5269 13.4117 28.6394 13.4117 28.6414C13.4554 28.9837 13.4689 29.3291 13.4519 29.6737C13.4487 29.7263 13.435 29.8705 13.435 29.8697C13.435 29.8689 13.4065 30.0188 13.3968 30.0613C13.3813 30.1302 13.3632 30.198 13.3425 30.265C13.3289 30.31 13.3136 30.3542 13.2979 30.3983C13.2931 30.4116 13.2553 30.4976 13.2818 30.4385C13.2229 30.5599 13.1558 30.677 13.0808 30.7892C13.0691 30.8076 13.008 30.8868 13.0784 30.7972C13.0607 30.8201 13.0422 30.8418 13.0233 30.8639C12.9739 30.9221 12.9212 30.978 12.8665 31.0318C12.8187 31.0788 12.768 31.123 12.7178 31.1675C12.7129 31.172 12.6373 31.233 12.6928 31.19C12.7483 31.1471 12.6554 31.2166 12.6418 31.2262C12.5226 31.3098 12.3976 31.385 12.2679 31.4511C12.216 31.4776 12.1629 31.5025 12.1095 31.5267C12.2188 31.4776 12.0472 31.5487 12.0178 31.5592C11.8792 31.6085 11.7375 31.6488 11.5937 31.6797C11.5535 31.6877 11.5169 31.6945 11.4783 31.7018C11.4698 31.7018 11.3737 31.7191 11.4481 31.7078C11.5225 31.6966 11.4264 31.7102 11.4172 31.711C11.377 31.7146 11.3396 31.7182 11.301 31.7211C11.1314 31.7325 10.9612 31.7325 10.7916 31.7211L10.6883 31.713C10.677 31.713 10.5624 31.6994 10.6533 31.711C10.5845 31.7022 10.5162 31.6897 10.4482 31.6765C10.2778 31.6432 10.1094 31.6005 9.94368 31.5487C9.64998 31.4616 9.36682 31.3422 9.0994 31.1929C8.81904 31.0493 8.55151 30.882 8.29974 30.6928C8.38015 30.755 8.23139 30.6305 8.21169 30.6124C8.15782 30.5634 8.10796 30.5108 8.05771 30.4578C8.05771 30.4558 7.99137 30.3775 8.02997 30.4273C8.06856 30.4771 7.99901 30.3799 7.98976 30.367C7.97328 30.3413 7.95881 30.314 7.94273 30.2867C7.88322 30.1899 7.94272 30.312 7.919 30.2369C7.75819 29.7336 7.97489 29.0471 8.22737 28.5964C8.30065 28.4662 8.38118 28.3401 8.46859 28.2189C8.41713 28.29 8.5088 28.1666 8.52729 28.1474C8.58237 28.0823 8.64027 28.0188 8.69977 27.9578C8.80395 27.85 8.9156 27.7498 9.03387 27.6577C8.95587 27.7172 9.1195 27.6015 9.1408 27.587C9.21518 27.5384 9.29117 27.4922 9.36917 27.4493C9.44716 27.4063 9.52636 27.3665 9.60717 27.3287C9.67431 27.2978 9.62044 27.3219 9.60717 27.3287C9.65823 27.3075 9.7109 27.2886 9.76317 27.2701C9.93124 27.2114 10.1034 27.1649 10.2782 27.1311C10.3107 27.1247 10.3437 27.1191 10.3767 27.1134C10.5837 27.0777 10.3172 27.1171 10.437 27.1058C10.5258 27.0974 10.6143 27.091 10.7031 27.0885C10.8961 27.0833 11.0987 27.1239 11.2881 27.0982C11.3384 27.0918 11.3882 27.0837 11.4385 27.0773C11.3327 27.0906 11.4759 27.0745 11.4947 27.0725C11.5812 27.064 11.6672 27.0572 11.7541 27.0532C11.9233 27.0445 12.0929 27.0486 12.2614 27.0656C12.3386 27.0741 12.2562 27.0656 12.2442 27.0636C12.2944 27.0729 12.3447 27.0821 12.3941 27.0938C12.4729 27.1126 12.5504 27.1359 12.6265 27.1637C12.6961 27.1894 12.6229 27.1637 12.6116 27.1568C12.657 27.1789 12.7017 27.2018 12.7455 27.2271C12.7716 27.2424 12.7974 27.2589 12.8231 27.2749C12.9783 27.3729 12.7475 27.2034 12.8882 27.3267C13.1415 27.5481 13.5524 27.5939 13.798 27.3267C14.0252 27.0813 14.0726 26.6515 13.8025 26.4149Z" fill="#592E2E"/>
<path d="M49.0815 27.6826C48.7534 26.9648 47.996 26.5367 47.2377 26.3169C45.7136 25.8731 43.9261 26.1458 42.794 27.2581L43.6077 26.3949C42.6311 26.8066 42.1338 27.8911 41.9826 28.9535C41.9703 29.0398 41.9603 29.126 41.9525 29.2122C41.9091 29.6862 41.9276 30.2039 42.2186 30.5811C42.4044 30.8221 42.6798 30.9748 42.9544 31.1053C44.0212 31.6118 45.1877 31.8741 46.3689 31.8733C46.8377 31.8733 47.3274 31.8235 47.723 31.5724C48.0707 31.3523 48.31 30.9993 48.5234 30.6486C48.8551 30.1015 49.1518 29.4733 49.2339 28.8495C49.2861 28.451 49.2511 28.0538 49.0815 27.6826Z" fill="#592E2E"/>
<path d="M49.6372 27.3581C49.0185 26.0619 47.4095 25.5461 46.0747 25.4774C44.7154 25.4072 43.3255 25.8494 42.3393 26.803L43.2488 27.712C43.5203 27.4238 43.7915 27.136 44.0625 26.8484C44.1709 26.7372 44.2356 26.5908 44.2448 26.436C44.2541 26.2811 44.2072 26.128 44.1127 26.0048C43.9029 25.7333 43.582 25.7084 43.2829 25.8394C42.3273 26.2579 41.7415 27.2324 41.4802 28.2048C41.3455 28.7057 41.2582 29.2576 41.2993 29.7774C41.3523 30.449 41.6181 31.0081 42.1749 31.4017C42.6529 31.7396 43.254 31.9528 43.8088 32.1272C44.4032 32.3097 45.0153 32.4288 45.6349 32.4823C46.2162 32.5361 46.8382 32.5509 47.4075 32.3995C48.0391 32.2312 48.4978 31.8247 48.8665 31.3009C49.2567 30.7535 49.5554 30.1465 49.751 29.5034C49.9628 28.7768 49.9395 28.0538 49.638 27.3589C49.5033 27.0496 49.0257 26.9572 48.7579 27.1283C48.4363 27.3356 48.3832 27.6766 48.5272 28.0076C48.4869 27.9188 48.5637 28.1325 48.5601 28.1201C48.573 28.1647 48.5826 28.21 48.5935 28.2554C48.6101 28.3346 48.6168 28.4156 48.6136 28.4964C48.6164 28.7619 48.5927 28.8776 48.5107 29.16C48.3832 29.5974 48.189 29.9613 47.9349 30.3767C47.8775 30.4695 47.8167 30.5594 47.7564 30.6506C47.6427 30.8217 47.7942 30.6104 47.7194 30.7028C47.6857 30.743 47.6503 30.7856 47.6133 30.8253C47.5763 30.8651 47.5385 30.9025 47.4987 30.939C47.4806 30.9555 47.3729 31.0354 47.4533 30.9792C47.4171 31.0041 47.3801 31.0274 47.3419 31.0495C47.3037 31.0716 47.2643 31.0917 47.2241 31.1105C47.2764 31.0892 47.2643 31.0921 47.1936 31.1194C47.0357 31.1709 46.8723 31.2037 46.7067 31.217C46.4476 31.233 46.1878 31.233 45.9288 31.217C45.4595 31.1937 44.994 31.12 44.5405 30.9973C44.0855 30.8837 43.6434 30.7238 43.221 30.5201C43.1225 30.4728 43.0265 30.4204 42.9336 30.363C42.8974 30.3401 42.8592 30.3164 42.825 30.2903C42.9163 30.361 42.7587 30.222 42.7591 30.2224C42.747 30.2112 42.6835 30.1284 42.7386 30.2048C42.7033 30.1546 42.6725 30.1015 42.6465 30.0461C42.6598 30.0734 42.6783 30.1477 42.6437 30.03C42.6264 29.971 42.6127 29.9115 42.5974 29.8517C42.5516 29.6733 42.5942 29.9617 42.5866 29.7758C42.5866 29.7336 42.5814 29.6922 42.5802 29.65C42.5769 29.5448 42.5802 29.4396 42.5866 29.3347C42.5902 29.2825 42.5946 29.2299 42.5995 29.1777C42.6023 29.1512 42.6183 29.013 42.6039 29.1226C42.6196 29.0062 42.6413 28.8897 42.6658 28.7748C42.7113 28.5629 42.7718 28.3546 42.8471 28.1514C42.8519 28.1381 42.9275 27.961 42.8708 28.0879C42.895 28.0349 42.9195 27.9823 42.9456 27.9301C42.9974 27.8273 43.0546 27.7273 43.1169 27.6304C43.1374 27.5983 43.1595 27.5674 43.1808 27.5356C43.2612 27.4127 43.1289 27.5866 43.2174 27.4862C43.2902 27.4009 43.3677 27.3197 43.4494 27.2428C43.4462 27.2456 43.5845 27.1263 43.5129 27.185C43.4598 27.2287 43.6126 27.1171 43.6307 27.1046C43.7274 27.0446 43.8285 26.9918 43.933 26.9468L43.1535 25.9374L42.3401 26.801C42.1094 27.046 42.0788 27.4702 42.3401 27.71C42.6015 27.9498 42.991 27.9598 43.2496 27.71C43.3075 27.6541 43.3657 27.5995 43.4265 27.5473C43.4321 27.5429 43.582 27.4224 43.4827 27.4983C43.5934 27.4144 43.709 27.3371 43.8289 27.2669C43.9495 27.1958 44.0729 27.1352 44.198 27.0737C44.2671 27.0432 44.2703 27.0412 44.2084 27.0677C44.2362 27.056 44.2639 27.0452 44.2916 27.0347C44.3568 27.0098 44.4227 26.9861 44.4887 26.9644C44.6227 26.9205 44.7576 26.883 44.8935 26.852C44.9522 26.8387 45.0113 26.8267 45.0704 26.8154C45.0945 26.8106 45.3374 26.7753 45.1974 26.7917C45.4685 26.7581 45.7419 26.747 46.0148 26.7584C46.1467 26.7636 46.2777 26.7749 46.4088 26.7889C46.2701 26.7741 46.5133 26.8058 46.5379 26.8102C46.5974 26.8212 46.6569 26.8328 46.7164 26.8451C46.8541 26.8749 46.9907 26.9102 47.126 26.9512C47.1944 26.9721 47.2622 26.9946 47.3295 27.0187C47.352 27.0267 47.5434 27.103 47.4336 27.056C47.5655 27.1128 47.6936 27.178 47.8172 27.2512C47.8698 27.2822 47.9217 27.3147 47.9719 27.3489C48.0057 27.3717 48.0387 27.395 48.0712 27.4191C48.0211 27.3798 48.025 27.3838 48.0829 27.4312C48.189 27.5218 48.2868 27.6217 48.3752 27.7296C48.3076 27.6429 48.3989 27.7698 48.413 27.7935C48.4548 27.862 48.4929 27.9326 48.5272 28.0052C48.6723 28.3097 49.1322 28.4129 49.4072 28.2357C49.7192 28.0361 49.7936 27.6838 49.6372 27.3581Z" fill="#592E2E"/>
<path d="M25.7977 1.73724C22.7317 1.94812 18.1102 2.29959 15.0318 2.69243C14.867 2.71372 14.6981 2.73621 14.5269 2.76072C14.4203 2.9258 14.3065 3.08206 14.2129 3.25759C14.1622 3.35238 14.1145 3.44865 14.0697 3.54639C14.0577 3.5725 14.0468 3.59861 14.0348 3.62432C14.0183 3.6677 14.0002 3.71027 13.9837 3.75325C13.9033 3.96694 13.8325 4.18505 13.7726 4.40597C13.7151 4.61605 13.6665 4.82894 13.6247 5.04263C13.6027 5.1567 13.5825 5.27091 13.564 5.38526C13.5559 5.43587 13.5479 5.48688 13.5406 5.5379C13.537 5.5628 13.531 5.60658 13.5282 5.62626C13.4723 6.07734 13.4365 6.53043 13.418 6.98432C13.3778 7.95397 13.4084 8.92562 13.4639 9.89366C13.5511 11.4116 13.7453 12.9311 13.7883 14.4523C17.282 14.3168 20.7798 14.2131 24.2816 14.1414C24.2675 13.422 24.2385 12.7026 24.22 11.9832C24.1646 9.84425 24.163 7.69167 24.5015 5.57324C24.7061 4.27543 25.0679 2.87479 25.7977 1.73724Z" fill="#F2EBDC"/>
<path d="M36.0083 5.32857C35.9943 5.19561 35.9794 5.06266 35.9629 4.93011C35.9589 4.89677 35.9544 4.86303 35.95 4.82929C35.95 4.82728 35.95 4.81844 35.9476 4.8088L35.9287 4.67384C35.8567 4.16084 35.7563 3.65221 35.628 3.15029C35.5645 2.90647 35.4925 2.66466 35.4093 2.42727C35.3691 2.31681 35.3289 2.20796 35.285 2.0995C35.285 2.10191 35.2533 2.02479 35.242 1.99989C35.2195 1.95008 35.1962 1.90068 35.1721 1.85167C35.081 1.6641 34.977 1.48305 34.8609 1.30981C32.8957 1.34436 30.9318 1.41867 28.969 1.53274C28.969 1.53274 28.3318 1.5701 27.3029 1.63677C27.2574 1.68337 27.2129 1.73077 27.1695 1.77897C27.1292 1.82556 27.089 1.87256 27.0488 1.92076C27.0332 1.93964 27.0179 1.96093 27.0026 1.9782C26.9395 2.06898 26.8723 2.15655 26.8112 2.24893C26.6783 2.45031 26.5575 2.65942 26.4494 2.87514C26.3923 2.98881 26.3388 3.1045 26.2886 3.22098L26.2805 3.23865L26.2576 3.29489C26.2308 3.35862 26.2058 3.42289 26.1824 3.48769C26.0184 3.93206 25.8841 4.38682 25.7804 4.84897C25.7245 5.08998 25.6759 5.33339 25.6325 5.57761C25.6095 5.70534 25.5886 5.83388 25.5689 5.96241C25.5593 6.02347 25.5504 6.08291 25.5416 6.14557C25.5396 6.15923 25.538 6.17289 25.536 6.18574C25.5388 6.16686 25.5396 6.16325 25.5299 6.22872C25.4035 7.26609 25.3343 8.3096 25.3225 9.35456C25.2959 10.9436 25.3804 12.5302 25.4065 14.118C28.9533 14.0492 32.501 14.0069 36.0497 13.9911C36.0742 13.8537 36.0968 13.7163 36.1173 13.5782C36.1229 13.5404 36.1281 13.5027 36.1334 13.4649V13.4601C36.1438 13.3797 36.1539 13.2994 36.1631 13.2163C36.1977 12.9115 36.2245 12.606 36.2435 12.2996C36.3802 10.2137 36.2327 8.12222 36.0739 6.04395C36.0537 5.80563 36.0319 5.56716 36.0083 5.32857Z" fill="#F2EBDC"/>
<path d="M46.3154 7.84514C46.3089 7.79252 46.3021 7.7403 46.2952 7.68809C46.3013 7.73307 46.3037 7.75437 46.3049 7.76119C46.3029 7.74794 46.2965 7.69733 46.294 7.68086C46.2833 7.60267 46.2718 7.52447 46.2595 7.44628C46.2378 7.30328 46.2142 7.16069 46.1887 7.0185C46.0798 6.39785 45.933 5.78442 45.7493 5.18163C45.6589 4.88707 45.5579 4.5968 45.4461 4.31081C45.4204 4.24533 45.3931 4.18026 45.3657 4.11519V4.11318C45.3513 4.08064 45.3376 4.04811 45.3231 4.01558C45.2663 3.88784 45.2068 3.76145 45.1446 3.63639C45.025 3.39515 44.8933 3.16013 44.7498 2.93225C44.6746 2.81175 44.5966 2.69768 44.5142 2.58441C44.4853 2.54424 44.3787 2.36308 44.4688 2.52134C44.4339 2.46962 44.3946 2.42097 44.3514 2.37594C44.1969 2.19077 44.0288 2.01743 43.8484 1.85738C43.799 1.81359 43.7471 1.77222 43.6965 1.72964C43.6792 1.71679 43.6619 1.70353 43.6442 1.68948C43.5517 1.6228 43.4562 1.56067 43.3575 1.5031C43.2771 1.4549 43.1911 1.41112 43.1055 1.37015C40.7881 1.29918 38.4697 1.2724 36.1501 1.28981C36.4364 1.86421 36.627 2.49483 36.7701 3.09975C37.0137 4.13045 37.1343 5.19127 37.2075 6.24647C37.2771 7.25066 37.3579 8.25806 37.3929 9.26627C37.4331 10.4255 37.429 11.5896 37.3281 12.7456C37.2923 13.1573 37.2477 13.5722 37.183 13.9839C38.3159 13.9794 39.4488 13.9771 40.5814 13.9771C41.0362 13.9771 43.2651 13.9394 46.005 13.8783C46.1455 13.382 46.2516 12.8765 46.3226 12.3656C46.3226 12.3576 46.325 12.3507 46.3258 12.3443C46.3266 12.3379 46.3258 12.3443 46.3258 12.3411C46.3298 12.3061 46.3347 12.2712 46.3391 12.2362C46.3475 12.1656 46.3556 12.0945 46.3632 12.0238C46.3777 11.8917 46.3903 11.7595 46.401 11.6269C46.4265 11.3168 46.4431 11.0061 46.4508 10.6946C46.4683 10.0592 46.4534 9.42413 46.4062 8.78948C46.3842 8.4751 46.3539 8.16032 46.3154 7.84514Z" fill="#F2EBDC"/>
<path d="M58.6758 9.9527C58.6327 9.64903 58.5837 9.34657 58.5266 9.04532C58.5179 8.99601 58.5141 8.94595 58.5153 8.8959C58.1447 7.15504 57.1794 5.30331 56.1666 3.94806C53.871 0.876856 48.1455 1.57818 44.5649 1.5111C44.7073 1.66454 44.8415 1.82562 44.967 1.99311C45.6987 2.95713 46.1635 4.12199 46.4903 5.28042C46.857 6.57783 47.0532 7.92906 47.1231 9.27387C47.1977 10.562 47.1282 11.8544 46.9161 13.1271C46.8698 13.3963 46.8152 13.6698 46.7484 13.9425C50.1006 13.8622 56.3327 13.326 58.5684 13.2151C58.6881 13.2113 58.807 13.1935 58.9226 13.1621C58.9036 12.111 58.8245 11.0619 58.6858 10.0198C58.6822 9.99648 58.6786 9.97399 58.6758 9.9527Z" fill="#F2EBDC"/>
<path d="M6.28865 12.1976C6.24845 12.7198 6.25166 13.2709 6.48967 13.7377C7.23425 15.1869 11.2337 14.6816 12.513 14.4719C12.5821 13.7548 12.611 13.0344 12.5995 12.3141C12.5874 10.7677 12.4672 9.19672 12.5536 7.66875C12.5762 7.26708 12.614 3.08966 13.0598 2.99567C8.93569 3.84561 6.57611 8.29054 6.28865 12.1976Z" fill="#F2EBDC"/>
</g>
<defs>
<clipPath id="clip0_16:3449">
<rect width="61" height="33" fill="white"/>
</clipPath>
</defs>
</svg>
