<svg width="67" height="36" viewBox="0 0 67 36" fill="none" xmlns="http://www.w3.org/2000/svg">
<g clip-path="url(#clip0_16:3529)">
<path d="M7.21588 1.52541C10.7435 -0.442738 16.5431 0.228558 20.4377 0.097871C24.9031 -0.0563402 29.3703 -0.0283127 33.8392 0.181949C42.225 0.58011 52.7232 0.649806 60.5098 4.02285C64.6839 5.83113 66.4926 9.85412 66.905 14.1189C67.0741 15.8684 66.9756 17.6788 66.9271 19.4335C66.8829 20.9678 66.7637 23.2208 66.6772 24.7647C66.5548 26.9572 66.2356 27.3039 65.3904 28.8713C63.9103 31.6219 61.3638 31.628 58.8588 31.2934C58.5704 30.4555 57.999 29.7408 57.2402 29.2689C56.4815 28.797 55.5815 28.5965 54.6908 28.701C53.8373 28.5734 52.9559 28.5873 52.3399 29.1401C51.8313 29.5971 51.656 30.3071 51.5707 30.9824C45.4158 31.205 39.2184 31.083 33.0691 31.1666C29.0226 31.2215 24.9536 31.3622 20.8881 31.3993C20.722 30.247 20.1758 29.0708 19.1033 28.6243L19.997 29.5605C18.7536 28.3542 16.7903 28.0584 15.1164 28.5398C14.2836 28.7794 13.4517 29.2438 13.0913 30.0209C12.905 30.4234 12.8666 30.8525 12.924 31.2842C12.1268 31.2491 11.3307 31.2045 10.5356 31.1505C7.95947 30.9741 5.06677 30.6456 2.89648 29.1318C0.821116 27.6829 0.1124 25.3946 0.0126057 22.8832C-0.119864 19.5328 0.829948 15.786 1.06486 13.1078C1.47596 8.48234 2.87308 3.94836 7.21588 1.52541ZM53.2116 8.31419C53.3065 9.96956 53.1745 11.675 53.1613 13.3522C53.1486 14.1334 53.1803 14.9147 53.2562 15.6924C54.6613 15.9198 59.054 16.4678 59.8717 14.896C60.1367 14.3898 60.1367 13.793 60.0925 13.2259C59.7768 8.98854 57.1853 4.16791 52.6535 3.24613C53.1454 3.34589 53.1869 7.88031 53.2116 8.31419ZM40.4004 12.9924C40.3801 13.7726 40.3483 14.5528 40.3329 15.333C44.178 15.4131 48.0197 15.5255 51.8578 15.6701C51.9063 14.0204 52.1183 12.3725 52.2141 10.7262C52.275 9.67639 52.3077 8.62261 52.2644 7.57101C52.2441 7.07876 52.2048 6.58737 52.1434 6.09817C52.1404 6.07682 52.1337 6.02934 52.1298 6.00233C52.1218 5.94701 52.113 5.89168 52.1041 5.83679C52.0838 5.71278 52.0616 5.58892 52.0375 5.4652C51.9933 5.23345 51.9381 5.00257 51.875 4.77474C51.8092 4.53514 51.7328 4.2986 51.6432 4.06685C51.625 4.02024 51.6052 3.97406 51.5871 3.92701C51.5738 3.89913 51.5619 3.87081 51.5487 3.8425C51.4995 3.73679 51.4471 3.63239 51.3915 3.52929C51.2886 3.34023 51.1636 3.16946 51.0466 2.99042C50.8585 2.96385 50.673 2.93945 50.492 2.91636C47.1109 2.49076 42.0351 2.10915 38.6677 1.88045C39.4679 3.11414 39.867 4.63316 40.0935 6.04066C40.4631 8.33902 40.4614 10.6735 40.4004 12.9924ZM27.1976 13.3361C27.2194 13.668 27.2488 13.9994 27.2859 14.3302C27.2961 14.4173 27.3071 14.5044 27.3186 14.5946V14.5998C27.3244 14.6408 27.3301 14.6817 27.3363 14.7227C27.3588 14.8725 27.3835 15.0215 27.4105 15.1705C31.3068 15.1902 35.2034 15.2361 39.1 15.3081C39.1287 13.5861 39.2215 11.8667 39.1923 10.1421C39.1793 9.00879 39.1033 7.87708 38.9645 6.75204C38.9539 6.68103 38.9548 6.68495 38.9578 6.70543C38.9578 6.69062 38.9539 6.67581 38.9517 6.66187C38.942 6.59565 38.9322 6.53118 38.9216 6.46322C38.9 6.32382 38.8775 6.18442 38.8519 6.04589C38.8042 5.78103 38.7508 5.51748 38.6894 5.25567C38.5755 4.75446 38.428 4.26126 38.2478 3.77934C38.2207 3.70935 38.1932 3.63964 38.1652 3.57023L38.1401 3.50925L38.1312 3.49008C38.0747 3.36375 38.016 3.23829 37.9546 3.11501C37.8359 2.88105 37.7032 2.65428 37.5572 2.43587C37.4901 2.33568 37.4163 2.24071 37.347 2.14226C37.3302 2.12135 37.3135 2.0987 37.2962 2.07996C37.2521 2.02769 37.2079 1.97672 37.1638 1.92619C37.1196 1.87565 37.0671 1.82251 37.0172 1.77198C35.8872 1.69967 35.1873 1.65915 35.1873 1.65915C33.0322 1.53282 30.8751 1.45223 28.7162 1.41738C28.5886 1.60526 28.4745 1.80161 28.3744 2.00504C28.3479 2.05818 28.3223 2.11176 28.2976 2.16578C28.2852 2.19279 28.2499 2.27643 28.2503 2.27381C28.2026 2.39143 28.1563 2.50949 28.1139 2.62929C28.0225 2.88718 27.9434 3.14942 27.8737 3.41341C27.7328 3.95776 27.6225 4.50937 27.5434 5.06574L27.5226 5.21211C27.5226 5.22256 27.52 5.23215 27.52 5.23432C27.5151 5.27092 27.5103 5.30751 27.5058 5.34367C27.4877 5.48742 27.4714 5.63161 27.4559 5.7758C27.4286 6.03398 27.405 6.29275 27.3853 6.55209C27.2082 8.81037 27.0462 11.0756 27.1963 13.3369L27.1976 13.3361ZM15.9818 11.5975C15.9913 11.9352 16.0095 12.2723 16.0366 12.6086C16.0484 12.7523 16.0622 12.8958 16.0781 13.039C16.0865 13.1156 16.0953 13.1927 16.1046 13.2694C16.1095 13.3073 16.1148 13.3452 16.1192 13.3831C16.1192 13.3831 16.1192 13.3857 16.1192 13.3866C16.1192 13.3875 16.1214 13.401 16.1227 13.4097C16.2006 13.9638 16.3172 14.512 16.4715 15.0503C19.4808 15.1165 21.9289 15.1574 22.4283 15.1574C23.6723 15.1574 24.9165 15.1599 26.1608 15.1648C26.0906 14.7183 26.0407 14.2683 26.0014 13.8218C25.8906 12.5681 25.8862 11.3056 25.9303 10.0484C25.9687 8.95499 26.0575 7.86462 26.1339 6.77338C26.2143 5.629 26.3467 4.47851 26.6143 3.3607C26.7715 2.70465 26.9808 2.02072 27.2952 1.39777C24.7491 1.37483 22.2028 1.40387 19.6561 1.4849C19.5621 1.52846 19.4693 1.57682 19.3793 1.62909C19.2709 1.69124 19.166 1.75862 19.0644 1.83122C19.045 1.84473 19.026 1.8591 19.007 1.87479C18.9514 1.92096 18.8944 1.96583 18.8401 2.01331C18.642 2.1869 18.4573 2.37489 18.2877 2.5757C18.2402 2.62454 18.1971 2.6773 18.1588 2.7334C18.2577 2.56176 18.1407 2.75866 18.1089 2.80179C18.0183 2.92464 17.9322 3.05053 17.8501 3.17904C17.6925 3.42618 17.5478 3.68106 17.4165 3.9427C17.3482 4.07803 17.2828 4.2151 17.2204 4.35392C17.2045 4.38921 17.1895 4.4245 17.1736 4.45978V4.46196C17.1449 4.53253 17.1149 4.6031 17.0853 4.67411C16.9623 4.98486 16.8513 5.29966 16.7524 5.61854C16.5506 6.27227 16.3894 6.93754 16.2697 7.61065C16.2421 7.76486 16.2162 7.91951 16.192 8.07459C16.1788 8.15911 16.1661 8.24391 16.1541 8.329C16.1514 8.34773 16.1443 8.40262 16.1421 8.41612C16.1421 8.40872 16.1461 8.38563 16.1527 8.33684C16.1452 8.39347 16.1377 8.45011 16.1306 8.50717C16.0877 8.84812 16.0537 9.19008 16.0286 9.53306C15.9795 10.2199 15.9639 10.9083 15.9818 11.5984V11.5975ZM2.67613 14.3267C5.13036 14.4469 11.9751 15.0302 15.6582 15.1156C15.5849 14.8198 15.5257 14.5231 15.474 14.2313C15.241 12.851 15.1648 11.4493 15.2466 10.0523C15.3243 8.59386 15.5389 7.12842 15.9417 5.72135C16.3006 4.46675 16.8111 3.20126 17.6148 2.1562C17.753 1.97628 17.9004 1.8016 18.0563 1.63345C14.1237 1.70838 7.83539 0.945599 5.31405 4.27639C4.20174 5.74618 3.14155 7.75441 2.73442 9.64241C2.73577 9.6967 2.73162 9.75098 2.72206 9.80446C2.65936 10.1312 2.60549 10.4579 2.55824 10.7885C2.55471 10.8121 2.55118 10.836 2.54808 10.8595C2.39577 11.9897 2.30893 13.1275 2.288 14.2674C2.41455 14.3024 2.54482 14.3225 2.67613 14.3276V14.3267Z" fill="#5B85B7"/>
<path d="M52.3392 29.3119C52.9553 28.7558 53.8367 28.7423 54.6902 28.8702C55.5809 28.7651 56.481 28.9668 57.2398 29.4414C57.9985 29.9161 58.5699 30.6351 58.8584 31.4779C58.9467 31.7299 59.0081 31.9905 59.0416 32.2552C59.0814 32.5742 59.0796 32.9064 58.967 33.2078C58.7904 33.675 58.3757 34.008 57.9553 34.281C56.9728 34.9181 55.8225 35.3646 54.6501 35.3076C53.4777 35.2507 52.2946 34.6166 51.8005 33.5597C51.4614 32.8349 51.4689 31.9989 51.5647 31.2053L51.57 31.165C51.6539 30.4858 51.8305 29.7716 52.3392 29.3119Z" fill="#592E2E"/>
<path d="M51.8399 28.8163C52.5266 28.2199 53.4058 28.0433 54.2982 28.1218C54.4135 28.1319 54.5274 28.1463 54.6418 28.1617L54.7358 28.1744C54.8127 28.1923 54.8294 28.1919 54.7853 28.1744C54.7177 28.1871 54.8502 28.1564 54.8736 28.1546C55.0809 28.1411 55.2889 28.1437 55.4958 28.1625C55.9371 28.1964 56.3714 28.292 56.7857 28.4465C58.4756 29.1038 59.7522 30.7382 59.7726 32.5791C59.7836 33.6101 59.1658 34.3279 58.3414 34.869C57.6167 35.3449 56.7914 35.7275 55.9365 35.8992C54.2704 36.2331 52.4709 35.763 51.4487 34.3493C50.8618 33.5378 50.7421 32.4862 50.8269 31.516C50.9117 30.5458 51.0989 29.5157 51.8426 28.8181C52.1111 28.5657 52.5787 28.5337 52.8419 28.8181C53.0949 29.0915 53.1285 29.5402 52.8419 29.8097C52.7835 29.8633 52.7285 29.9203 52.6772 29.9806C52.6251 30.0428 52.6772 29.9806 52.6851 29.9718C52.6599 30.0086 52.6348 30.0459 52.6118 30.084C52.5707 30.1515 52.535 30.2216 52.5005 30.2921C52.4661 30.3627 52.5005 30.2921 52.5041 30.2803C52.4829 30.3333 52.4639 30.3872 52.4462 30.4416C52.3995 30.584 52.3612 30.729 52.3314 30.8758C52.3151 30.9551 52.3009 31.0349 52.2872 31.1146C52.2846 31.1322 52.2638 31.2741 52.2753 31.1922C52.285 31.1203 52.2691 31.243 52.2691 31.2452C52.2211 31.6186 52.2063 31.9954 52.225 32.3714C52.2285 32.4288 52.2435 32.5861 52.2435 32.5852C52.2435 32.5843 52.2749 32.7478 52.2855 32.7942C52.3026 32.8693 52.3224 32.9433 52.3451 33.0164C52.3601 33.0654 52.3769 33.1136 52.3941 33.1618C52.3994 33.1763 52.4409 33.2701 52.4118 33.2057C52.4764 33.3381 52.5502 33.4659 52.6326 33.5882C52.6454 33.6084 52.7125 33.6947 52.6352 33.597C52.6546 33.6219 52.675 33.6456 52.6957 33.6697C52.75 33.7333 52.8079 33.7942 52.8679 33.8529C52.9205 33.9041 52.9761 33.9523 53.0313 34.001C53.0366 34.0058 53.1196 34.0724 53.0587 34.0255C52.9978 33.9786 53.0998 34.0544 53.1148 34.065C53.2457 34.1562 53.3829 34.2382 53.5254 34.3103C53.5824 34.3393 53.6407 34.3664 53.6994 34.3927C53.5793 34.3393 53.7679 34.4168 53.8001 34.4282C53.9524 34.482 54.108 34.5259 54.266 34.5597C54.3101 34.5684 54.3503 34.5759 54.3927 34.5838C54.402 34.5838 54.5075 34.6026 54.4258 34.5904C54.3442 34.5781 54.4497 34.593 54.4598 34.5939C54.504 34.5978 54.5451 34.6017 54.5875 34.6048C54.7737 34.6173 54.9607 34.6173 55.147 34.6048L55.2604 34.596C55.2728 34.596 55.3987 34.5811 55.2989 34.5939C55.3744 34.5842 55.4494 34.5706 55.5241 34.5562C55.7112 34.5199 55.8962 34.4733 56.0783 34.4168C56.4009 34.3218 56.7119 34.1916 57.0056 34.0286C57.3135 33.872 57.6074 33.6894 57.8839 33.483C57.7956 33.551 57.959 33.4151 57.9806 33.3954C58.0398 33.3419 58.0945 33.2845 58.1497 33.2267C58.1497 33.2245 58.2226 33.1391 58.1802 33.1934C58.1378 33.2477 58.2142 33.1417 58.2244 33.1277C58.2425 33.0996 58.2584 33.0698 58.276 33.04C58.3414 32.9344 58.276 33.0676 58.3021 32.9857C58.4787 32.4366 58.2407 31.6878 57.9634 31.1961C57.8829 31.054 57.7944 30.9165 57.6984 30.7842C57.755 30.8618 57.6543 30.7273 57.634 30.7062C57.5735 30.6352 57.5099 30.566 57.4445 30.4994C57.3301 30.3819 57.2075 30.2725 57.0776 30.1721C57.1632 30.2369 56.9835 30.1107 56.9601 30.095C56.8784 30.0419 56.7949 29.9915 56.7093 29.9447C56.6236 29.8978 56.5366 29.8544 56.4479 29.8132C56.3741 29.7795 56.4333 29.8058 56.4479 29.8132C56.3918 29.79 56.3339 29.7694 56.2765 29.7492C56.0919 29.6852 55.9029 29.6345 55.7109 29.5976C55.6751 29.5906 55.6389 29.5845 55.6027 29.5783C55.3752 29.5393 55.668 29.5823 55.5364 29.57C55.4388 29.5608 55.3417 29.5538 55.2441 29.5512C55.0321 29.5455 54.8096 29.5897 54.6016 29.5617C54.5464 29.5547 54.4916 29.5459 54.4364 29.5389C54.5526 29.5534 54.3954 29.5358 54.3746 29.5336C54.2797 29.5244 54.1852 29.517 54.0898 29.5126C53.904 29.5031 53.7177 29.5076 53.5325 29.5262C53.4477 29.5354 53.5383 29.5262 53.5515 29.524C53.4963 29.5341 53.4411 29.5441 53.3868 29.5569C53.3003 29.5774 53.2151 29.6029 53.1316 29.6331C53.0552 29.6611 53.1355 29.6331 53.1479 29.6257C53.098 29.6498 53.049 29.6747 53.0008 29.7023C52.9721 29.719 52.9439 29.737 52.9156 29.7545C52.7452 29.8614 52.9986 29.6765 52.8441 29.811C52.5659 30.0525 52.1146 30.1024 51.8448 29.811C51.5953 29.5433 51.5432 29.0744 51.8399 28.8163Z" fill="#592E2E"/>
<path d="M13.0908 30.1992C13.4511 29.4162 14.2831 28.9491 15.1159 28.7094C16.79 28.2252 18.7533 28.5227 19.9968 29.7361L19.103 28.7944C20.1756 29.2435 20.7219 30.4267 20.8879 31.5857C20.9014 31.6797 20.9125 31.7738 20.921 31.8679C20.9687 32.3849 20.9484 32.9498 20.6287 33.3612C20.4247 33.6241 20.1222 33.7906 19.8206 33.9331C18.6488 34.4856 17.3676 34.7718 16.0702 34.7709C15.5553 34.7709 15.0175 34.7165 14.5829 34.4427C14.201 34.2025 13.9382 33.8174 13.7037 33.4348C13.3394 32.838 13.0135 32.1527 12.9235 31.4722C12.866 31.0375 12.9045 30.6041 13.0908 30.1992Z" fill="#592E2E"/>
<path d="M12.4804 29.8451C13.16 28.4311 14.9272 27.8685 16.3933 27.7935C17.8863 27.7168 19.4129 28.1993 20.4961 29.2396L19.4972 30.2312C19.199 29.9169 18.9011 29.6028 18.6034 29.2891C18.4844 29.1679 18.4133 29.0081 18.4032 28.8392C18.393 28.6702 18.4445 28.5033 18.5482 28.3689C18.7788 28.0727 19.1311 28.0455 19.4597 28.1883C20.5093 28.6449 21.1527 29.708 21.4397 30.7689C21.5877 31.3153 21.6835 31.9173 21.6385 32.4844C21.5802 33.217 21.2883 33.827 20.6767 34.2564C20.1516 34.6249 19.4915 34.8576 18.8821 35.0478C18.2292 35.2469 17.5569 35.3768 16.8764 35.4351C16.2379 35.4939 15.5547 35.5101 14.9295 35.3449C14.2357 35.1613 13.7319 34.7178 13.3269 34.1464C12.8983 33.5492 12.5702 32.887 12.3554 32.1855C12.1227 31.3928 12.1483 30.6041 12.4795 29.846C12.6275 29.5086 13.1521 29.4078 13.4462 29.5945C13.7994 29.8206 13.8577 30.1926 13.6996 30.5537C13.7438 30.4569 13.6594 30.69 13.6634 30.6764C13.6493 30.725 13.6387 30.7745 13.6268 30.8241C13.6085 30.9105 13.6011 30.9988 13.6047 31.087C13.6016 31.3766 13.6276 31.5028 13.7177 31.8109C13.8577 32.288 14.071 32.6851 14.3501 33.1381C14.4132 33.2394 14.4799 33.3375 14.5461 33.437C14.6711 33.6237 14.5046 33.3932 14.5868 33.494C14.6239 33.5378 14.6627 33.5842 14.7034 33.6276C14.744 33.671 14.7855 33.7117 14.8292 33.7516C14.8491 33.7696 14.9674 33.8568 14.8791 33.7954C14.9188 33.8226 14.9595 33.848 15.0014 33.8721C15.0434 33.8962 15.0866 33.9181 15.1308 33.9387C15.0734 33.9155 15.0866 33.9186 15.1644 33.9484C15.3378 34.0046 15.5173 34.0403 15.6991 34.0548C15.9837 34.0724 16.269 34.0724 16.5536 34.0548C17.0691 34.0294 17.5803 33.9491 18.0784 33.8151C18.5782 33.6912 19.0638 33.5168 19.5277 33.2946C19.6359 33.243 19.7413 33.1858 19.8434 33.1232C19.8832 33.0983 19.9251 33.0724 19.9626 33.0439C19.8624 33.1211 20.0355 32.9694 20.0351 32.9699C20.0483 32.9576 20.1181 32.8673 20.0576 32.9506C20.0963 32.8959 20.1301 32.838 20.1587 32.7775C20.1441 32.8073 20.1238 32.8884 20.1618 32.76C20.1808 32.6956 20.1958 32.6307 20.2126 32.5654C20.2629 32.3709 20.2161 32.6855 20.2245 32.4826C20.2245 32.4366 20.2302 32.3915 20.2316 32.3455C20.2351 32.2307 20.2316 32.1158 20.2245 32.0015C20.2205 31.9445 20.2157 31.8871 20.2104 31.8301C20.2073 31.8012 20.1896 31.6505 20.2055 31.7701C20.1883 31.643 20.1645 31.516 20.1375 31.3906C20.0876 31.1595 20.021 30.9322 19.9384 30.7106C19.9331 30.6961 19.85 30.5029 19.9123 30.6413C19.8858 30.5835 19.8589 30.5261 19.8302 30.4691C19.7733 30.357 19.7105 30.2479 19.6421 30.1422C19.6195 30.1072 19.5952 30.0734 19.5718 30.0388C19.4835 29.9047 19.6288 30.0945 19.5317 29.9849C19.4516 29.8919 19.3666 29.8032 19.2769 29.7194C19.2804 29.7224 19.1285 29.5923 19.2071 29.6563C19.2654 29.704 19.0976 29.5822 19.0777 29.5686C18.9715 29.5032 18.8605 29.4456 18.7456 29.3964L19.6019 28.2953L20.4952 29.2374C20.7487 29.5047 20.7822 29.9674 20.4952 30.229C20.2082 30.4906 19.7803 30.5016 19.4963 30.229C19.4327 30.1681 19.3687 30.1085 19.302 30.0515C19.2959 30.0467 19.1311 29.9153 19.2402 29.9981C19.1186 29.9065 18.9917 29.8223 18.86 29.7457C18.7275 29.6681 18.592 29.6019 18.4546 29.5349C18.3787 29.5016 18.3751 29.4994 18.4431 29.5283C18.4127 29.5156 18.3822 29.5038 18.3517 29.4924C18.2802 29.4652 18.2078 29.4394 18.1354 29.4157C17.9882 29.3678 17.8399 29.3269 17.6907 29.293C17.6262 29.2786 17.5613 29.2654 17.4964 29.2531C17.4699 29.2479 17.2032 29.2093 17.3568 29.2273C17.0591 29.1907 16.7588 29.1785 16.4591 29.1909C16.3143 29.1966 16.1703 29.2089 16.0263 29.2242C16.1787 29.208 15.9115 29.2426 15.8846 29.2474C15.8192 29.2594 15.7539 29.2721 15.6885 29.2856C15.5372 29.318 15.3872 29.3566 15.2386 29.4013C15.1635 29.424 15.089 29.4486 15.0151 29.4749C14.9904 29.4836 14.7802 29.5669 14.9007 29.5156C14.7558 29.5775 14.6151 29.6487 14.4795 29.7286C14.4216 29.7623 14.3647 29.7978 14.3095 29.8351C14.2724 29.86 14.2362 29.8855 14.2004 29.9117C14.2554 29.8688 14.2512 29.8732 14.1876 29.9249C14.0711 30.0238 13.9636 30.1327 13.8666 30.2505C13.9407 30.1558 13.8405 30.2943 13.825 30.3201C13.7791 30.3948 13.7372 30.4719 13.6996 30.5511C13.5402 30.8832 13.035 30.9958 12.733 30.8026C12.3903 30.5848 12.3086 30.2005 12.4804 29.8451Z" fill="#592E2E"/>
<path d="M38.6648 1.89514C42.0323 2.12519 47.1083 2.50861 50.4895 2.93716C50.6706 2.96038 50.856 2.98493 51.0442 3.01166C51.1612 3.19175 51.2862 3.36221 51.389 3.5537C51.4447 3.65711 51.4971 3.76213 51.5463 3.86875C51.5595 3.89724 51.5714 3.92572 51.5847 3.95377C51.6028 4.00109 51.6226 4.04754 51.6407 4.09442C51.7291 4.32754 51.8068 4.56548 51.8726 4.80648C51.9357 5.03566 51.9892 5.2679 52.0351 5.50102C52.0592 5.62546 52.0814 5.75005 52.1018 5.87479C52.1106 5.93001 52.1194 5.98566 52.1274 6.04131C52.1313 6.06848 52.138 6.11624 52.1411 6.13771C52.2024 6.6298 52.2417 7.12407 52.2621 7.61923C52.3062 8.67702 52.2727 9.73701 52.2117 10.793C52.1159 12.449 51.9026 14.1066 51.8554 15.7661C48.018 15.6183 44.1762 15.5052 40.33 15.4269C40.3454 14.6421 40.3772 13.8573 40.3975 13.0725C40.4585 10.7391 40.4602 8.39088 40.0884 6.07986C39.8637 4.66407 39.4662 3.1361 38.6648 1.89514Z" fill="#F2EBDC"/>
<path d="M27.4499 5.81305C27.4653 5.66801 27.4817 5.52297 27.4998 5.37837C27.5042 5.342 27.5091 5.30519 27.5139 5.26838C27.5139 5.26619 27.5139 5.25655 27.5166 5.24603L27.5373 5.0988C27.6164 4.53916 27.7267 3.98429 27.8676 3.43674C27.9374 3.17076 28.0164 2.90697 28.1078 2.648C28.152 2.5275 28.1962 2.40875 28.2443 2.29043C28.2443 2.29306 28.2792 2.20893 28.2915 2.18176C28.3163 2.12743 28.3419 2.07353 28.3684 2.02007C28.4684 1.81545 28.5826 1.61794 28.7102 1.42896C30.8686 1.46664 33.0258 1.5477 35.1816 1.67215C35.1816 1.67215 35.8815 1.7129 37.0115 1.78564C37.0616 1.83647 37.1104 1.88818 37.1581 1.94076C37.2023 1.99159 37.2465 2.04286 37.2906 2.09544C37.3078 2.11604 37.3246 2.13926 37.3414 2.1581C37.4107 2.25713 37.4845 2.35266 37.5516 2.45345C37.6976 2.67314 37.8303 2.90125 37.949 3.13658C38.0117 3.26059 38.0705 3.38679 38.1257 3.51386L38.1345 3.53314L38.1597 3.59449C38.1891 3.66402 38.2166 3.73413 38.2422 3.80482C38.4224 4.28958 38.5699 4.78569 38.6838 5.28985C38.7452 5.55277 38.7986 5.81831 38.8463 6.08473C38.8715 6.22408 38.8945 6.3643 38.9161 6.50452C38.9267 6.57112 38.9364 6.63597 38.9461 6.70433C38.9483 6.71923 38.9501 6.73413 38.9523 6.74815C38.9492 6.72755 38.9483 6.72361 38.9589 6.79504C39.0978 7.92671 39.1738 9.06509 39.1868 10.205C39.2159 11.9385 39.1232 13.6694 39.0945 15.4015C35.1988 15.3265 31.3021 15.2803 27.4044 15.2631C27.3775 15.1132 27.3527 14.9633 27.3302 14.8126C27.324 14.7714 27.3183 14.7302 27.3125 14.689V14.6838C27.3011 14.5961 27.29 14.5085 27.2799 14.4178C27.2419 14.0854 27.2125 13.752 27.1916 13.4179C27.0414 11.1423 27.2035 8.86067 27.3779 6.59347C27.4 6.33348 27.424 6.07334 27.4499 5.81305Z" fill="#F2EBDC"/>
<path d="M16.1289 8.55825C16.1359 8.50085 16.1434 8.44388 16.151 8.38691C16.1443 8.43599 16.1417 8.45922 16.1404 8.46667C16.1426 8.45221 16.1496 8.397 16.1523 8.37903C16.1641 8.29373 16.1767 8.20842 16.1903 8.12312C16.2141 7.96713 16.24 7.81157 16.268 7.65645C16.3876 6.97938 16.5488 6.31018 16.7506 5.6526C16.8498 5.33126 16.9608 5.0146 17.0836 4.70261C17.1118 4.63118 17.1419 4.5602 17.1719 4.48921V4.48702C17.1878 4.45152 17.2028 4.41603 17.2187 4.38054C17.2811 4.24119 17.3465 4.10331 17.4148 3.96688C17.5461 3.70371 17.6908 3.44733 17.8484 3.19873C17.931 3.06728 18.0167 2.94283 18.1072 2.81927C18.139 2.77545 18.256 2.57782 18.1571 2.75047C18.1954 2.69404 18.2386 2.64097 18.286 2.59184C18.4557 2.38984 18.6403 2.20075 18.8385 2.02614C18.8928 1.97838 18.9497 1.93324 19.0054 1.88679C19.0244 1.87277 19.0433 1.85831 19.0628 1.84298C19.1643 1.77024 19.2693 1.70246 19.3776 1.63965C19.4659 1.58707 19.5604 1.53931 19.6545 1.49462C22.1998 1.4172 24.7463 1.38799 27.2939 1.40698C26.9795 2.03359 26.7702 2.72155 26.613 3.38146C26.3454 4.50586 26.2129 5.66312 26.1326 6.81425C26.0562 7.90972 25.9674 9.00871 25.929 10.1086C25.8848 11.3732 25.8893 12.6431 26.0001 13.9042C26.0394 14.3533 26.0884 14.806 26.1595 15.2551C24.9151 15.2501 23.6709 15.2477 22.4268 15.2477C21.9273 15.2477 19.4792 15.2065 16.4698 15.1399C16.3154 14.5984 16.1988 14.047 16.1209 13.4896C16.1209 13.4809 16.1183 13.4734 16.1174 13.4664C16.1165 13.4594 16.1174 13.4664 16.1174 13.4629C16.113 13.4248 16.1077 13.3867 16.1028 13.3485C16.0935 13.2714 16.0847 13.1939 16.0763 13.1167C16.0604 12.9727 16.0466 12.8284 16.0348 12.6838C16.0068 12.3455 15.9886 12.0065 15.9801 11.6668C15.9609 10.9736 15.9773 10.2808 16.0291 9.58844C16.0532 9.24548 16.0865 8.90208 16.1289 8.55825Z" fill="#F2EBDC"/>
<path d="M2.55276 10.8575C2.6 10.5262 2.65388 10.1963 2.71658 9.86763C2.72615 9.81384 2.73029 9.75923 2.72895 9.70462C3.13609 7.80551 4.19633 5.78544 5.30868 4.30699C7.83014 0.956581 14.1188 1.72167 18.0515 1.64849C17.8952 1.81588 17.7477 1.99159 17.6099 2.17432C16.8062 3.22598 16.2958 4.49673 15.9368 5.76047C15.534 7.17583 15.3185 8.6499 15.2417 10.117C15.1598 11.5222 15.2361 12.9321 15.4691 14.3205C15.5199 14.6141 15.58 14.9125 15.6533 15.2101C11.9713 15.1224 5.12631 14.5374 2.67065 14.4165C2.53914 14.4124 2.40857 14.393 2.28162 14.3586C2.30255 13.212 2.38939 12.0675 2.54172 10.9307C2.54569 10.9053 2.54966 10.8807 2.55276 10.8575Z" fill="#F2EBDC"/>
<path d="M60.0927 13.3065C60.1369 13.8761 60.1334 14.4773 59.872 14.9865C59.0541 16.5675 54.6612 16.0162 53.2561 15.7875C53.1802 15.0052 53.1485 14.2193 53.1612 13.4335C53.1744 11.7465 53.3065 10.0327 53.2115 8.36585C53.1868 7.92766 53.1453 3.37048 52.6556 3.26794C57.1853 4.19516 59.777 9.04417 60.0927 13.3065Z" fill="#F2EBDC"/>
</g>
<defs>
<clipPath id="clip0_16:3529">
<rect width="67" height="36" fill="white" transform="matrix(-1 0 0 1 67 0)"/>
</clipPath>
</defs>
</svg>
