<svg width="46" height="22" viewBox="0 0 46 22" fill="none" xmlns="http://www.w3.org/2000/svg">
<path d="M4.95418 1.05932C7.37617 -0.307457 11.3579 0.158721 14.0318 0.0679659C17.0976 -0.0391251 20.1647 -0.0196616 23.2329 0.126353C28.9903 0.402854 36.198 0.451254 41.544 2.79364C44.4099 4.04939 45.6516 6.84314 45.9348 9.80478C46.0509 11.0197 45.9833 12.277 45.9499 13.4955C45.9196 14.561 45.8378 16.1256 45.7783 17.1977C45.6944 18.7203 45.4752 18.9611 44.8949 20.0495C43.8787 21.9596 42.1304 21.9639 40.4105 21.7315C40.2125 21.1497 39.8202 20.6533 39.2993 20.3256C38.7784 19.9979 38.1604 19.8587 37.5489 19.9312C36.9629 19.8426 36.3578 19.8523 35.9349 20.2362C35.5856 20.5535 35.4653 21.0466 35.4068 21.5155C31.181 21.6701 26.926 21.5854 22.7042 21.6435C19.926 21.6816 17.1323 21.7793 14.3411 21.805C14.2271 21.0049 13.8521 20.1881 13.1157 19.878L13.7293 20.5281C12.8756 19.6904 11.5277 19.485 10.3784 19.8193C9.80664 19.9857 9.23547 20.3082 8.98809 20.8479C8.86015 21.1274 8.83378 21.4254 8.8732 21.7252C8.32588 21.7008 7.77927 21.6698 7.23337 21.6323C5.46471 21.5098 3.47868 21.2817 1.98863 20.2304C0.563752 19.2243 0.0771708 17.6351 0.00865559 15.8911C-0.0822938 13.5645 0.569816 10.9625 0.731099 9.10264C1.01335 5.89051 1.97256 2.74192 4.95418 1.05932ZM36.5333 5.77374C36.5985 6.92331 36.5079 8.10766 36.4988 9.27235C36.4901 9.81485 36.5119 10.3574 36.564 10.8975C37.5286 11.0554 40.5445 11.436 41.106 10.3445C41.2879 9.99295 41.2879 9.5785 41.2576 9.18462C41.0408 6.24204 39.2615 2.89438 36.1501 2.25426C36.4879 2.32353 36.5164 5.47243 36.5333 5.77374ZM27.7376 9.02247C27.7237 9.56428 27.7018 10.1061 27.6912 10.6479C30.3312 10.7036 32.9687 10.7816 35.6038 10.882C35.6372 9.73641 35.7827 8.59199 35.8485 7.44878C35.8903 6.71971 35.9128 5.98793 35.883 5.25765C35.8691 4.9158 35.8421 4.57456 35.8 4.23484C35.7979 4.22001 35.7933 4.18704 35.7906 4.16828C35.7851 4.12986 35.7791 4.09144 35.773 4.05333C35.759 3.96721 35.7438 3.88119 35.7272 3.79528C35.6969 3.63434 35.659 3.47401 35.6157 3.31579C35.5705 3.14941 35.518 2.98514 35.4565 2.8242C35.4441 2.79183 35.4304 2.75976 35.418 2.72709C35.4089 2.70773 35.4007 2.68807 35.3916 2.6684C35.3579 2.59499 35.3219 2.52249 35.2837 2.45089C35.2131 2.3196 35.1273 2.20102 35.0469 2.07668C34.9178 2.05823 34.7904 2.04128 34.6661 2.02525C32.3448 1.72969 28.8599 1.46469 26.548 1.30587C27.0973 2.1626 27.3714 3.21747 27.5269 4.19491C27.7807 5.79099 27.7795 7.41218 27.7376 9.02247ZM18.673 9.26116C18.688 9.49168 18.7082 9.72179 18.7336 9.9515C18.7406 10.012 18.7482 10.0725 18.7561 10.1351V10.1388C18.76 10.1672 18.7639 10.1956 18.7682 10.2241C18.7836 10.3281 18.8006 10.4316 18.8191 10.5351C21.4942 10.5488 24.1695 10.5806 26.8448 10.6307C26.8645 9.43481 26.9282 8.24077 26.9082 7.0431C26.8993 6.25611 26.847 5.47019 26.7517 4.68892C26.7445 4.63961 26.7451 4.64233 26.7472 4.65655C26.7472 4.64626 26.7445 4.63598 26.7429 4.6263C26.7363 4.58031 26.7296 4.53554 26.7223 4.48835C26.7075 4.39154 26.692 4.29474 26.6744 4.19854C26.6417 4.01461 26.605 3.83158 26.5629 3.64977C26.4847 3.30171 26.3834 2.95921 26.2597 2.62454C26.2411 2.57593 26.2222 2.52753 26.203 2.47933L26.1857 2.43698L26.1797 2.42367C26.1408 2.33594 26.1005 2.24881 26.0584 2.1632C25.9769 2.00073 25.8858 1.84325 25.7855 1.69158C25.7395 1.622 25.6888 1.55605 25.6412 1.48768C25.6297 1.47316 25.6182 1.45743 25.6064 1.44442C25.5761 1.40812 25.5457 1.37272 25.5154 1.33763C25.4851 1.30254 25.449 1.26563 25.4148 1.23054C24.639 1.18032 24.1585 1.15219 24.1585 1.15219C22.6788 1.06446 21.1978 1.00849 19.7156 0.984292C19.628 1.11476 19.5496 1.25112 19.4809 1.39239C19.4627 1.42929 19.4452 1.4665 19.4282 1.50401C19.4197 1.52277 19.3954 1.58085 19.3957 1.57904C19.363 1.66072 19.3312 1.7427 19.3021 1.82589C19.2393 2.00498 19.185 2.1871 19.1371 2.37042C19.0404 2.74844 18.9647 3.13151 18.9104 3.51787L18.8961 3.61952C18.8961 3.62678 18.8943 3.63343 18.8943 3.63495C18.891 3.66036 18.8876 3.68577 18.8846 3.71088C18.8722 3.81071 18.861 3.91084 18.8503 4.01097C18.8315 4.19027 18.8154 4.36996 18.8018 4.55006C18.6803 6.11831 18.569 7.6914 18.6721 9.26177L18.673 9.26116ZM10.9726 8.05381C10.9791 8.28837 10.9916 8.52241 11.0102 8.75595C11.0183 8.85579 11.0278 8.95541 11.0387 9.05484C11.0445 9.10808 11.0505 9.16163 11.0569 9.21487C11.0602 9.24119 11.0639 9.26751 11.0669 9.29383C11.0669 9.29383 11.0669 9.29565 11.0669 9.29625C11.0669 9.29686 11.0684 9.30623 11.0693 9.31228C11.1228 9.69709 11.2028 10.0778 11.3088 10.4516C13.3749 10.4975 15.0556 10.526 15.3985 10.526C16.2526 10.526 17.1068 10.5277 17.9612 10.5311C17.913 10.221 17.8787 9.90855 17.8517 9.59847C17.7756 8.72782 17.7726 7.85113 17.8029 6.97806C17.8293 6.21875 17.8902 5.46154 17.9427 4.70374C17.9978 3.90903 18.0888 3.11008 18.2725 2.33382C18.3804 1.87823 18.5241 1.40328 18.74 0.970676C16.9919 0.954744 15.2437 0.974911 13.4952 1.03118C13.4307 1.06143 13.367 1.09501 13.3052 1.13131C13.2308 1.17447 13.1587 1.22126 13.089 1.27168C13.0757 1.28106 13.0626 1.29104 13.0496 1.30193C13.0114 1.334 12.9723 1.36516 12.935 1.39813C12.799 1.51868 12.6722 1.64923 12.5557 1.78868C12.5232 1.8226 12.4935 1.85924 12.4672 1.89819C12.5351 1.779 12.4548 1.91574 12.433 1.94569C12.3708 2.031 12.3117 2.11843 12.2553 2.20767C12.1471 2.37929 12.0478 2.55629 11.9576 2.73798C11.9107 2.83196 11.8658 2.92716 11.823 3.02356C11.8121 3.04806 11.8018 3.07257 11.7909 3.09707V3.09858C11.7711 3.14759 11.7505 3.1966 11.7302 3.24591C11.6457 3.46171 11.5695 3.68032 11.5016 3.90177C11.3631 4.35574 11.2524 4.81774 11.1703 5.28518C11.1513 5.39227 11.1335 5.49966 11.1169 5.60736C11.1078 5.66605 11.0991 5.72493 11.0908 5.78403C11.089 5.79703 11.0842 5.83515 11.0827 5.84453C11.0827 5.83939 11.0854 5.82336 11.0899 5.78947C11.0848 5.8288 11.0796 5.86813 11.0748 5.90776C11.0453 6.14453 11.0219 6.382 11.0047 6.62018C10.971 7.09715 10.9603 7.57523 10.9726 8.05442V8.05381ZM1.83735 9.94908C3.52234 10.0326 8.22169 10.4376 10.7504 10.4969C10.7001 10.2915 10.6594 10.0855 10.624 9.88283C10.464 8.92428 10.4116 7.95092 10.4678 6.98079C10.5212 5.96796 10.6685 4.95029 10.945 3.97316C11.1915 3.10191 11.542 2.2231 12.0937 1.49736C12.1886 1.37242 12.2899 1.25111 12.3969 1.13434C9.69689 1.18637 5.37952 0.656666 3.64845 2.96971C2.88478 3.9904 2.15688 5.38501 1.87737 6.69612C1.87829 6.73382 1.87544 6.77151 1.86888 6.80865C1.82583 7.03554 1.78884 7.26243 1.7564 7.49204C1.75398 7.50838 1.75155 7.52502 1.74943 7.54135C1.64486 8.32618 1.58523 9.11633 1.57086 9.90794C1.65775 9.93219 1.74719 9.9462 1.83735 9.94969V9.94908Z" fill="#5B85B7"/>
</svg>
