<svg width="75" height="63" viewBox="0 0 75 63" fill="none" xmlns="http://www.w3.org/2000/svg">
<g clip-path="url(#clip0_68:4527)">
<path d="M59.8403 4.6049C60.8431 12.5158 61.1693 20.5411 60.9317 28.5096C60.8879 30.0033 60.822 31.5117 61.0448 32.9851C61.2676 34.4586 61.8011 35.9337 62.8137 37.0356C63.7392 38.0416 65.0161 38.6827 66.3458 39.0055C68.9979 39.6489 72.1201 38.905 73.6946 36.6826C75.0552 34.7653 75.043 32.233 74.978 29.8849C74.7562 21.8951 74.5344 13.9054 74.3127 5.91608C74.272 4.46778 74.1899 2.90183 73.2692 1.77807C72.3746 0.69164 70.8977 0.288387 69.5005 0.114753C67.63 -0.116489 65.6911 -0.038596 63.9344 0.638091C61.7832 1.46732 59.6817 2.33386 59.8679 4.82073L59.8403 4.6049Z" fill="#592E2E"/>
<path d="M70.2504 15.8136H70.0795C70.025 15.8136 69.9726 15.8353 69.934 15.8738C69.8955 15.9123 69.8738 15.9646 69.8738 16.019C69.8738 16.0735 69.8955 16.1257 69.934 16.1643C69.9726 16.2027 70.025 16.2244 70.0795 16.2244H70.2504C70.2773 16.2244 70.3041 16.2191 70.329 16.2088C70.354 16.1984 70.3767 16.1833 70.3958 16.1643C70.4149 16.1452 70.4301 16.1225 70.4404 16.0976C70.4508 16.0727 70.4561 16.046 70.4561 16.019C70.4561 15.992 70.4508 15.9654 70.4404 15.9404C70.4301 15.9155 70.4149 15.8928 70.3958 15.8738C70.3767 15.8547 70.354 15.8396 70.329 15.8292C70.3041 15.8189 70.2773 15.8136 70.2504 15.8136Z" fill="#592E2E"/>
<path d="M69.2238 17.0421L69.0522 17.2126L69.2238 17.0421Z" fill="#592E2E"/>
<path d="M69.0784 16.8985L68.9068 17.0689C68.8681 17.1075 68.8464 17.1598 68.8464 17.2143C68.8464 17.2688 68.8681 17.321 68.9068 17.3596C68.9454 17.3981 68.9977 17.4197 69.0524 17.4197C69.1069 17.4197 69.1593 17.3981 69.1979 17.3596L69.3695 17.1891C69.4081 17.1505 69.4298 17.0983 69.4298 17.0438C69.4298 16.9893 69.4081 16.937 69.3695 16.8985C69.3309 16.86 69.2786 16.8383 69.2239 16.8383C69.1693 16.8383 69.117 16.86 69.0784 16.8985Z" fill="#592E2E"/>
<path d="M61.7084 5.81673C61.2074 7.10844 61.1171 8.59732 61.7734 9.85007C62.5217 11.2797 63.9954 12.1974 65.5145 12.7572C67.0508 13.3252 68.8034 13.5824 70.3072 12.9333C71.6556 12.3516 72.6299 11.1004 73.1626 9.73403C73.7083 8.3336 73.8303 6.72303 73.2488 5.3364C72.5226 3.60248 70.7521 2.42681 68.8889 2.14769C66.7434 1.82315 64.7891 2.77894 63.0332 3.89377C62.5111 4.22562 62.1866 4.78628 61.923 5.33315C61.8445 5.49055 61.7729 5.65175 61.7084 5.81673Z" fill="#D9415D"/>
<path d="M62.3656 28.7462C61.9834 29.4926 61.7963 30.3307 61.7223 31.1616C61.6483 31.9924 61.7109 32.8306 62.146 33.5543C62.9512 34.8955 64.8241 36.0355 66.2605 36.5361C67.9773 37.135 69.9845 37.0538 71.5069 36.0599C72.7683 35.2355 73.6035 33.8521 73.941 32.3852C74.2591 31.0009 74.1452 29.4805 73.419 28.2585C72.5577 26.811 70.9132 25.9331 69.2362 25.7432C67.5243 25.5501 65.6578 25.8917 64.1874 26.8093C63.5825 27.1987 63.058 27.7 62.6421 28.2861C62.5379 28.4319 62.4454 28.5857 62.3656 28.7462Z" fill="#1D7C58"/>
<path d="M62.3679 16.9229C62.2414 17.1715 62.1411 17.4325 62.0687 17.7018C61.7693 18.8069 61.5066 19.9972 61.9215 21.1096C62.2613 22.0224 63.0039 22.7283 63.792 23.3076C65.0436 24.2302 66.5002 24.9303 68.0495 25.0755C69.5988 25.2208 71.2457 24.7664 72.3396 23.6622C73.2016 22.7924 73.6644 21.5996 73.9132 20.4021C74.1475 19.2767 74.2053 18.0751 73.7873 17.0032C73.2619 15.6588 72.0183 14.6705 70.639 14.2356C69.2596 13.8007 67.76 13.8722 66.3522 14.2023C64.7273 14.5821 63.125 15.4308 62.3679 16.9229Z" fill="#F2BE5C"/>
<path d="M67.6177 39.2333C67.612 42.134 67.3192 45.0217 67.1891 47.915C67.0598 50.7914 67.2298 53.6482 67.416 56.5156C67.5225 58.1489 67.6145 59.783 67.6177 61.4195C67.6177 62.4743 69.2662 62.4743 69.2646 61.4195C69.259 58.5197 68.9653 55.632 68.8352 52.7378C68.7067 49.8607 68.8759 47.0047 69.0629 44.1372C69.1686 42.5039 69.2613 40.8698 69.2646 39.2325C69.2646 38.1777 67.6201 38.1777 67.6177 39.2325V39.2333Z" fill="#592E2E"/>
<path d="M65.4592 62.514C66.4482 62.5367 67.3704 63.0008 68.3683 63.0008C69.3662 63.0008 70.2885 62.5367 71.2767 62.514C72.3339 62.4888 72.3388 60.8466 71.2767 60.871C70.2836 60.8945 69.3532 61.3578 68.3683 61.3578C67.3834 61.3578 66.4522 60.8945 65.4592 60.871C64.4019 60.8466 64.4019 62.4888 65.4592 62.514Z" fill="#592E2E"/>
<path d="M43.2855 28.2588C41.8166 28.0367 40.3169 28.4567 38.8382 28.3156C37.3596 28.1745 35.7374 27.0992 35.8777 25.6169C35.9742 24.5927 36.8553 23.8564 37.5168 23.0691C38.6599 21.7075 39.2573 19.8408 38.8836 18.1031C38.5099 16.3653 37.0751 14.8424 35.3167 14.5788C33.6248 14.3251 31.488 15.0338 30.4527 13.669C29.5748 12.5094 30.3425 10.8933 30.6708 9.47582C31.4158 6.25815 29.3819 2.74531 26.3492 1.43731C23.3165 0.129319 19.6069 0.906974 17.072 3.02345C15.1637 4.61688 13.8294 7.2807 14.7259 9.59991C15.3234 11.1406 16.7429 12.1802 17.9021 13.3625C19.0613 14.5448 20.0463 16.2428 19.4635 17.7917C19.0289 18.9456 17.8218 19.6511 16.6124 19.8911C15.4029 20.1311 14.1569 19.9982 12.9239 19.9884C10.8761 19.9722 8.7198 20.3476 7.14223 21.654C5.56469 22.9604 4.80267 25.3963 5.87436 27.1414C7.24599 29.3739 11.0245 29.9585 11.2247 32.5745C11.3633 34.4031 9.46318 35.737 7.67889 36.1644C5.89462 36.5917 3.94418 36.5398 2.37393 37.4862C-0.102633 38.9782 -0.645776 42.6354 0.759098 45.163C2.16397 47.6906 5.02722 49.1365 7.88885 49.5419L17.997 48.8988C19.4967 48.9921 21.0378 49.0764 22.5488 49.0035C22.4969 48.7885 22.441 48.5737 22.3794 48.3604C22.3178 48.1471 22.1289 47.7392 22.2521 47.5186C22.2652 47.4953 22.281 47.4735 22.2991 47.4538C22.5066 47.2357 22.8958 47.4635 23.1641 47.3387C23.3213 47.2649 23.6359 47.2178 23.7915 47.14C24.3322 46.8675 24.6152 47.4311 24.856 47.8219C25.0211 48.0895 25.1723 48.3652 25.3091 48.6483C26.2754 48.4386 27.2069 48.0927 28.0759 47.6209C30.9416 46.0404 32.7729 45.7501 36.3697 46.1677C39.3522 46.514 41.7322 46.5286 44.8314 45.7972C46.747 45.3455 48.2362 43.7188 48.918 41.8715C49.5997 40.0243 49.5665 37.9848 49.2568 36.0403C48.7104 32.5802 46.7478 28.7835 43.2855 28.2588Z" fill="#1D7C58"/>
<path d="M43.2855 28.2588C41.8166 28.0367 40.3169 28.4567 38.8382 28.3156C37.3596 28.1745 35.7374 27.0992 35.8777 25.6169C35.9742 24.5927 36.8553 23.8564 37.5168 23.0691C38.6599 21.7075 39.2573 19.8408 38.8836 18.1031C38.5099 16.3653 37.0751 14.8424 35.3167 14.5788C33.6248 14.3251 31.488 15.0338 30.4527 13.669C29.5748 12.5094 30.3425 10.8933 30.6708 9.47582C31.4158 6.25815 29.3819 2.74531 26.3492 1.43731C23.3165 0.129319 19.6069 0.906974 17.072 3.02345C15.1637 4.61688 13.8294 7.2807 14.7259 9.59991C15.3234 11.1406 16.7429 12.1802 17.9021 13.3625C19.0613 14.5448 20.0463 16.2428 19.4635 17.7917C19.0289 18.9456 17.8218 19.651 16.6124 19.8911C15.4029 20.1311 14.1569 19.9982 12.9239 19.9884C10.8761 19.9722 8.7198 20.3476 7.14223 21.654C5.56469 22.9604 4.80267 25.3963 5.87436 27.1414C7.24599 29.3739 11.0245 29.9585 11.2247 32.5745C11.3633 34.4031 9.46318 35.737 7.67889 36.1644C5.89462 36.5917 3.94418 36.5398 2.37393 37.4862C-0.102633 38.9782 -0.645776 42.6354 0.759098 45.163C2.16397 47.6906 5.02722 49.1365 7.88885 49.5419L17.997 48.8988C19.4967 48.9921 21.0378 49.0764 22.5488 49.0035C22.4969 48.7885 22.441 48.5737 22.3794 48.3604C22.3178 48.1471 22.1289 47.7392 22.2521 47.5186C22.2652 47.4953 22.281 47.4735 22.2991 47.4538C22.5066 47.2357 22.8958 47.4635 23.1641 47.3387C23.3213 47.2649 23.6359 47.2178 23.7915 47.14C24.3322 46.8675 24.6152 47.4311 24.856 47.8219C25.0211 48.0895 25.1723 48.3652 25.3091 48.6483C26.2754 48.4385 27.2069 48.0927 28.0759 47.6209C30.9416 46.0404 32.7729 45.7501 36.3697 46.1677C39.3522 46.514 41.7322 46.5286 44.8314 45.7972C46.747 45.3455 48.2362 43.7188 48.918 41.8715C49.5997 40.0243 49.5665 37.9848 49.2568 36.0403C48.7104 32.5802 46.7478 28.7835 43.2855 28.2588Z" fill="#1D7C58"/>
<path d="M43.2855 28.2588C41.8166 28.0367 40.3169 28.4567 38.8382 28.3156C37.3596 28.1745 35.7374 27.0992 35.8777 25.6169C35.9742 24.5927 36.8553 23.8564 37.5168 23.0691C38.6599 21.7075 39.2573 19.8408 38.8836 18.1031C38.5099 16.3653 37.0751 14.8424 35.3167 14.5788C33.6248 14.3251 31.488 15.0338 30.4527 13.669C29.5748 12.5094 30.3425 10.8933 30.6708 9.47582C31.4158 6.25815 29.3819 2.74531 26.3492 1.43731C23.3165 0.129319 19.6069 0.906974 17.072 3.02345C15.1637 4.61688 13.8294 7.2807 14.7259 9.59991C15.3234 11.1406 16.7429 12.1802 17.9021 13.3625C19.0613 14.5448 20.0463 16.2428 19.4635 17.7917C19.0289 18.9456 17.8218 19.651 16.6124 19.8911C15.4029 20.1311 14.1569 19.9982 12.9239 19.9884C10.8761 19.9722 8.7198 20.3476 7.14223 21.654C5.56469 22.9604 4.80267 25.3963 5.87436 27.1414C7.24599 29.3739 11.0245 29.9585 11.2247 32.5745C11.3633 34.4031 9.46318 35.737 7.67889 36.1644C5.89462 36.5917 3.94418 36.5398 2.37393 37.4862C-0.102633 38.9782 -0.645776 42.6354 0.759098 45.163C2.16397 47.6906 5.02722 49.1365 7.88885 49.5419L17.997 48.8988C19.4967 48.9921 21.0378 49.0764 22.5488 49.0035C22.4969 48.7885 22.441 48.5737 22.3794 48.3604C22.3178 48.1471 22.1289 47.7392 22.2521 47.5186C22.2652 47.4953 22.281 47.4735 22.2991 47.4538C22.5066 47.2357 22.8958 47.4635 23.1641 47.3387C23.3213 47.2649 23.6359 47.2178 23.7915 47.14C24.3322 46.8675 24.6152 47.4311 24.856 47.8219C25.0211 48.0895 25.1723 48.3652 25.3091 48.6483C26.2754 48.4385 27.2069 48.0927 28.0759 47.6209C30.9416 46.0404 32.7729 45.7501 36.3697 46.1677C39.3522 46.514 41.7322 46.5286 44.8314 45.7972C46.747 45.3455 48.2362 43.7188 48.918 41.8715C49.5997 40.0243 49.5665 37.9848 49.2568 36.0403C48.7104 32.5802 46.7478 28.7835 43.2855 28.2588Z" fill="#1D7C58"/>
<path d="M23.7929 47.1375C23.6373 47.2186 23.3227 47.2624 23.1654 47.3362C22.8971 47.4611 22.508 47.2332 22.3005 47.4513C22.2823 47.4711 22.2666 47.4929 22.2535 47.5162C22.1303 47.7368 22.3175 48.1407 22.3807 48.358C22.444 48.5753 22.4983 48.7861 22.5502 49.001C22.8583 50.3208 23.0077 51.6727 22.9952 53.0279C22.9912 55.0207 22.6685 57.0001 22.0395 58.8908C21.8398 59.489 21.6089 60.0764 21.348 60.6505C21.1364 61.1144 20.9426 61.746 21.3398 62.0623C21.6017 62.2699 21.9787 62.2058 22.3037 62.1312L29.1587 60.5564C29.3321 60.5167 27.7554 54.9798 27.5941 54.4819C26.9585 52.5212 26.2241 50.5612 25.3356 48.7002L25.3104 48.649C25.1737 48.366 25.0224 48.0903 24.8573 47.8228C24.6165 47.4287 24.3344 46.8651 23.7929 47.1375Z" fill="#592E2E"/>
<path d="M23.7929 47.1375C23.6373 47.2186 23.3227 47.2624 23.1654 47.3362C22.8971 47.4611 22.508 47.2332 22.3005 47.4513C22.2823 47.4711 22.2666 47.4929 22.2535 47.5162C22.1303 47.7368 22.3175 48.1407 22.3807 48.358C22.444 48.5753 22.4983 48.7861 22.5502 49.001C22.8583 50.3208 23.0077 51.6727 22.9952 53.0279C22.9912 55.0207 22.6685 57.0001 22.0395 58.8908C21.8398 59.489 21.6089 60.0764 21.348 60.6505C21.1364 61.1144 20.9426 61.746 21.3398 62.0623C21.6017 62.2699 21.9787 62.2058 22.3037 62.1312L29.1587 60.5564C29.3321 60.5167 27.7554 54.9798 27.5941 54.4819C26.9585 52.5212 26.2241 50.5612 25.3356 48.7002L25.3104 48.649C25.1737 48.366 25.0224 48.0903 24.8573 47.8228C24.6165 47.4287 24.3344 46.8651 23.7929 47.1375Z" fill="#592E2E"/>
<path d="M23.7929 47.1375C23.6373 47.2186 23.3227 47.2624 23.1654 47.3362C22.8971 47.4611 22.508 47.2332 22.3005 47.4513C22.2823 47.4711 22.2666 47.4929 22.2535 47.5162C22.1303 47.7368 22.3175 48.1407 22.3807 48.358C22.444 48.5753 22.4983 48.7861 22.5502 49.001C22.8583 50.3208 23.0077 51.6727 22.9952 53.0279C22.9912 55.0207 22.6685 57.0001 22.0395 58.8908C21.8398 59.489 21.6089 60.0764 21.348 60.6505C21.1364 61.1144 20.9426 61.746 21.3398 62.0623C21.6017 62.2699 21.9787 62.2058 22.3037 62.1312L29.1587 60.5564C29.3321 60.5167 27.7554 54.9798 27.5941 54.4819C26.9585 52.5212 26.2241 50.5612 25.3356 48.7002L25.3104 48.649C25.1737 48.366 25.0224 48.0903 24.8573 47.8228C24.6165 47.4287 24.3344 46.8651 23.7929 47.1375Z" fill="#592E2E"/>
</g>
<defs>
<clipPath id="clip0_68:4527">
<rect width="75" height="63" fill="white"/>
</clipPath>
</defs>
</svg>
