<svg width="100" height="64" viewBox="0 0 100 64" fill="none" xmlns="http://www.w3.org/2000/svg">
<g clip-path="url(#clip0_68:4504)">
<path d="M88.4551 47.9185L88.433 47.4953C88.6044 47.8626 88.8595 48.1852 89.1786 48.4375C89.297 46.6695 89.4294 44.9028 89.5749 43.1372C88.0889 40.4556 87.0904 37.5347 86.6249 34.5089L89.5779 43.1081C90.0411 37.5032 90.6389 31.9116 91.372 26.3333C91.3771 26.2391 91.383 26.1449 91.3889 26.0508L91.5029 25.3435C92.3441 19.0706 93.3566 12.8233 94.5382 6.60162L91.5029 25.3435C91.4588 25.6735 91.4154 26.0035 91.372 26.3333C90.9213 33.8899 90.5691 41.4512 90.3161 49.0174C90.9845 49.2125 91.6955 49.2105 92.3624 49.0116C93.8294 48.5592 94.9242 47.2874 95.5279 45.8845C96.1316 44.4815 96.3146 42.941 96.4911 41.4259L99.5698 15.0274C99.9764 11.5417 100.373 7.93848 99.3477 4.58074C98.6507 2.29958 96.8801 -0.0217834 94.4801 -9.33117e-05C92.3874 0.0194806 90.7632 1.79489 89.6558 3.55919C85.2051 10.6481 84.6352 19.4157 84.5639 27.7696C84.5249 32.4213 84.6044 37.1132 85.6132 41.6565C86.1169 43.9181 86.8897 46.2024 88.4551 47.9185ZM92.3374 37.0026C92.5021 35.3061 93.3764 33.7698 94.2301 32.2943L96.7338 27.9647L92.3374 37.0026ZM92.5345 20.533C93.4933 18.6171 94.6323 16.7959 95.9374 15.0941L92.5345 20.533ZM91.9749 11.302C91.4485 9.85834 91.1294 8.34808 91.0271 6.81588L91.9749 11.302ZM87.5139 21.4434L89.0051 27.8711C87.9014 25.9135 87.3845 23.6834 87.5139 21.4434Z" fill="#1D7C58"/>
<path d="M91.5051 25.3451L94.5404 6.60327C93.3588 12.8221 92.3463 19.0694 91.5051 25.3451Z" fill="#592E2E"/>
<path d="M91.6374 25.3811C91.7374 24.7621 91.8382 24.1432 91.9382 23.5242C92.1801 22.0288 92.422 20.5335 92.6639 19.0381L93.5352 13.6336C93.7882 12.0751 94.0404 10.5163 94.2926 8.95751C94.3764 8.43904 94.4602 7.92042 94.544 7.40165C94.583 7.16145 94.6462 6.91333 94.6624 6.67051C94.6632 6.65964 94.6654 6.64886 94.6676 6.63824C94.6948 6.47107 94.4396 6.39648 94.408 6.56735C93.4823 11.446 92.6602 16.3427 91.9426 21.2574C91.744 22.6191 91.5529 23.9815 91.3698 25.3446C91.347 25.515 91.6168 25.5134 91.6396 25.3446C92.2948 20.4702 93.0514 15.6105 93.9102 10.7657C94.1543 9.39021 94.4065 8.0148 94.6676 6.6393L94.408 6.5684C94.3073 7.18701 94.2073 7.80581 94.1073 8.42477L93.3808 12.9109L92.5073 18.3154C92.2543 19.8739 92.0021 21.4324 91.7507 22.9909C91.6661 23.5094 91.5823 24.0282 91.4985 24.5474C91.4595 24.787 91.3962 25.0356 91.3801 25.278C91.3793 25.2888 91.3771 25.2996 91.3749 25.3103C91.3477 25.4784 91.6073 25.5509 91.6374 25.3811Z" fill="#592E2E"/>
<path d="M91.3904 26.0521C91.3853 26.1462 91.3794 26.2403 91.3743 26.3344C91.4169 26.0045 91.461 25.6747 91.5044 25.3451L91.3904 26.0521Z" fill="#592E2E"/>
<path d="M91.2559 26.052L91.2398 26.3344C91.2287 26.5105 91.4876 26.4999 91.5089 26.3344C91.5523 26.0045 91.5956 25.6747 91.6398 25.3451C91.6596 25.197 91.3993 25.161 91.3736 25.3096C91.3353 25.5454 91.2971 25.7811 91.2596 26.0166C91.2317 26.1853 91.4912 26.2577 91.5192 26.088C91.5574 25.8522 91.5949 25.6165 91.6331 25.381L91.367 25.3451C91.3228 25.675 91.2795 26.0048 91.2368 26.3344H91.5059C91.5111 26.2403 91.517 26.1462 91.5221 26.052C91.5361 25.8802 91.2648 25.8807 91.2559 26.052Z" fill="#592E2E"/>
<path d="M89.58 43.1098L89.6101 43.1992L89.577 43.1389C89.4314 44.9048 89.2991 46.6715 89.1807 48.4392C88.8697 53.0565 88.6498 57.6787 88.5219 62.3056C88.5123 62.6557 88.5064 63.0229 88.6653 63.3355C89.1204 64.2306 90.4403 64.0603 91.402 63.7551C90.0366 59.2277 90.1403 54.4083 90.2954 49.683C90.3028 49.4615 90.3101 49.2396 90.3182 49.0175C90.5711 41.4517 90.9234 33.8903 91.3741 26.3334C90.6417 31.9111 90.0439 37.5032 89.58 43.1098Z" fill="#592E2E"/>
<path d="M95.9381 15.0942C94.6329 16.796 93.4932 18.6173 92.5352 20.5331L95.9381 15.0942Z" fill="#592E2E"/>
<path d="M95.8213 15.0265C94.5191 16.7302 93.3801 18.5511 92.4191 20.4654C92.3419 20.6188 92.5595 20.7484 92.6522 20.6008L95.6345 15.8343L96.0551 15.1619C96.147 15.0148 95.9139 14.8804 95.822 15.0265L92.8397 19.793L92.4191 20.4654L92.6522 20.6008C93.6125 18.6864 94.7515 16.8655 96.0544 15.1619C96.1588 15.0244 95.925 14.891 95.8213 15.0265Z" fill="#592E2E"/>
<path d="M91.0278 6.81592C91.13 8.34814 91.4492 9.85839 91.9756 11.3021L91.0278 6.81592Z" fill="#592E2E"/>
<path d="M90.8919 6.81597C90.9978 8.35956 91.3184 9.88122 91.8441 11.3375C91.8537 11.3718 91.8765 11.4009 91.9074 11.4184C91.9383 11.4359 91.9758 11.4404 92.0096 11.4309C92.0441 11.4215 92.0735 11.3988 92.0912 11.3679C92.1088 11.337 92.1133 11.3004 92.1037 11.2661C91.828 9.96118 91.5522 8.65624 91.2765 7.35134L91.1566 6.78105C91.1206 6.61282 90.8611 6.68423 90.8963 6.85246C91.1721 8.15741 91.4478 9.46235 91.7235 10.7673C91.764 10.9574 91.8037 11.1475 91.8441 11.3375L92.1037 11.2661C91.5846 9.83303 91.2677 8.33543 91.161 6.81597C91.1508 6.64509 90.8809 6.6435 90.8919 6.81597Z" fill="#592E2E"/>
<path d="M87.5146 21.4435C87.3852 23.6835 87.9021 25.9135 89.0058 27.8712L87.5146 21.4435Z" fill="#592E2E"/>
<path d="M87.38 21.4436C87.2565 23.7068 87.78 25.9586 88.8896 27.9389C88.9661 28.0743 89.1697 27.9807 89.1359 27.8331C88.7006 25.9576 88.2653 24.082 87.83 22.2064C87.7683 21.9395 87.7065 21.6723 87.6448 21.4049C87.6058 21.2372 87.3455 21.3087 87.3845 21.4764C87.8198 23.3516 88.255 25.2269 88.6903 27.1026C88.7521 27.3695 88.8139 27.6367 88.8764 27.904L89.1227 27.7982C88.0367 25.8589 87.5256 23.6538 87.6492 21.4383C87.6587 21.2711 87.3896 21.2716 87.38 21.4436Z" fill="#592E2E"/>
<path d="M92.3381 37.0028L96.733 27.9623L94.23 32.2918C93.3764 33.7699 92.5028 35.3062 92.3381 37.0028Z" fill="#592E2E"/>
<path d="M92.4552 37.0694L93.9353 34.0238L96.3081 29.1429C96.4883 28.7716 96.6684 28.4013 96.8493 28.032C96.9236 27.8786 96.7037 27.7458 96.6169 27.8971C95.7111 29.4615 94.803 31.0226 93.9044 32.5901C93.1162 33.9682 92.3714 35.4051 92.2037 37.0048C92.1861 37.1757 92.4552 37.1746 92.4728 37.0048C92.6419 35.3924 93.4317 33.9471 94.2309 32.561C95.1015 31.0494 95.9743 29.539 96.8493 28.0298L96.6169 27.895L95.1361 30.9406L92.7633 35.8214L92.2236 36.935C92.1471 37.0895 92.3794 37.228 92.4552 37.0694Z" fill="#592E2E"/>
<path d="M89.5801 43.1098L86.6272 34.5105C87.0926 37.5364 88.0912 40.4572 89.5772 43.1389L89.6103 43.1992L89.5801 43.1098Z" fill="#592E2E"/>
<path d="M89.7102 43.0744L88.7146 40.1763C88.1852 38.6337 87.6558 37.091 87.1257 35.5484C87.0029 35.1908 86.8801 34.8328 86.7573 34.4745C86.7007 34.3084 86.4713 34.3777 86.4977 34.5459C86.9779 37.6038 87.9926 40.5549 89.494 43.2664C89.5661 43.3976 89.7904 43.3093 89.7404 43.1632L89.7102 43.0744C89.6565 42.9119 89.3933 42.9818 89.4499 43.1453L89.4801 43.2347L89.7271 43.1315C88.2382 40.4401 87.233 37.5114 86.7573 34.4771L86.4977 34.5485L87.4926 37.4466L89.0815 42.0745C89.2043 42.4322 89.3271 42.7899 89.4499 43.1479C89.5073 43.3076 89.7661 43.2378 89.7102 43.0744Z" fill="#592E2E"/>
<path d="M9.56597 40.6376C9.56597 43.5303 9.38016 46.4184 9.29921 49.3091C9.21869 52.1866 9.3245 55.0559 9.44097 57.9308C9.50678 59.5583 9.5645 61.1903 9.56597 62.8212C9.56597 63.4823 10.5913 63.4849 10.5908 62.8212C10.5908 59.928 10.405 57.0403 10.3245 54.1492C10.2435 51.2722 10.3493 48.4023 10.4658 45.5279C10.5321 43.9005 10.5898 42.2685 10.5908 40.6376C10.5908 39.9764 9.56649 39.9739 9.56597 40.6376Z" fill="#592E2E"/>
<path d="M7.20848 63.6944C8.18015 63.7045 9.1239 63.9994 10.0946 63.9994C11.0651 63.9994 12.011 63.7045 12.9806 63.6944C13.6388 63.6878 13.6413 62.6589 12.9806 62.6656C12.0085 62.6757 11.0641 62.9706 10.0946 62.9706C9.12492 62.9706 8.17809 62.6757 7.20848 62.6656C6.55026 62.6589 6.54773 63.6878 7.20848 63.6944Z" fill="#592E2E"/>
<path d="M0.647036 28.8584C-0.16055 30.9537 -0.305355 33.3688 0.751339 35.4006C1.95791 37.7191 4.33206 39.2082 6.77659 40.116C9.2525 41.037 12.0757 41.455 14.499 40.4018C16.6717 39.4574 18.2413 37.4292 19.0985 35.2144C19.9774 32.9416 20.1744 30.3291 19.2382 28.0797C18.0676 25.2674 15.215 23.3603 12.2135 22.9086C8.75684 22.3884 5.60901 23.9329 2.77765 25.7408C1.93614 26.2784 1.41463 27.1948 0.989309 28.0751C0.86442 28.3294 0.750324 28.5905 0.647036 28.8584Z" fill="#D95964"/>
<path d="M5.55884 32.7074H14.3992" stroke="white" stroke-width="4" stroke-linecap="square" stroke-linejoin="round"/>
</g>
<defs>
<clipPath id="clip0_68:4504">
<rect width="100" height="64" fill="white"/>
</clipPath>
</defs>
</svg>
