<svg width="202" height="26" viewBox="0 0 202 26" fill="none" xmlns="http://www.w3.org/2000/svg">
<g clip-path="url(#clip0_16:3395)">
<path d="M25.4082 12.1839H4.82324V8.74178C4.82324 6.67651 6.51549 5 8.60014 5H25.4082V12.1839Z" fill="#2D2E83"/>
<path d="M25.4082 20.1533H0V17.3834C0 14.9456 1.99473 12.9694 4.45543 12.9694H25.4164V20.1533H25.4082Z" fill="#009FE3"/>
<path d="M27.7054 5H26.1848V12.1839H27.7054V5Z" fill="#2D2E83"/>
<path d="M27.7054 12.9694H26.1848V20.1533H27.7054V12.9694Z" fill="#009FE3"/>
<path d="M29.6429 5H28.4739V12.1839H29.6429V5Z" fill="#2D2E83"/>
<path d="M29.6429 12.9694H28.4739V20.1533H29.6429V12.9694Z" fill="#009FE3"/>
<path d="M31.008 5H30.4194V12.1839H31.008V5Z" fill="#2D2E83"/>
<path d="M31.008 12.9694H30.4194V20.1533H31.008V12.9694Z" fill="#009FE3"/>
<path d="M6.76075 22C8.27779 22 9.50759 20.7816 9.50759 19.2787C9.50759 17.7758 8.27779 16.5574 6.76075 16.5574C5.24372 16.5574 4.01392 17.7758 4.01392 19.2787C4.01392 20.7816 5.24372 22 6.76075 22Z" fill="#009FE3"/>
<path d="M22.04 22C23.5571 22 24.7869 20.7816 24.7869 19.2787C24.7869 17.7758 23.5571 16.5574 22.04 16.5574C20.523 16.5574 19.2932 17.7758 19.2932 19.2787C19.2932 20.7816 20.523 22 22.04 22Z" fill="#009FE3"/>
</g>
<path d="M44.8916 21H41.6689V5.35938H44.8916V21ZM60.6074 21H57.3848L51.1113 10.709V21H47.8887V5.35938H51.1113L57.3955 15.6719V5.35938H60.6074V21ZM63.4219 21V5.35938H68.2344C69.6094 5.35938 70.8376 5.6709 71.9189 6.29395C73.0075 6.90983 73.8561 7.79069 74.4648 8.93652C75.0736 10.0752 75.3779 11.3714 75.3779 12.8252V13.5449C75.3779 14.9987 75.0771 16.2913 74.4756 17.4229C73.8812 18.5544 73.0397 19.4316 71.9512 20.0547C70.8626 20.6777 69.6344 20.9928 68.2666 21H63.4219ZM66.6445 7.96973V18.4111H68.2021C69.4626 18.4111 70.4258 17.9993 71.0918 17.1758C71.7578 16.3522 72.098 15.1742 72.1123 13.6416V12.8145C72.1123 11.2246 71.7829 10.0215 71.124 9.20508C70.4652 8.38151 69.502 7.96973 68.2344 7.96973H66.6445ZM90.5781 13.5342C90.5781 15.0739 90.306 16.4238 89.7617 17.584C89.2174 18.7441 88.4368 19.6393 87.4199 20.2695C86.4102 20.8997 85.25 21.2148 83.9395 21.2148C82.6432 21.2148 81.4867 20.9033 80.4697 20.2803C79.4528 19.6572 78.665 18.7692 78.1064 17.6162C77.5479 16.4561 77.265 15.124 77.2578 13.6201V12.8467C77.2578 11.307 77.5335 9.95345 78.085 8.78613C78.6436 7.61165 79.4277 6.71289 80.4375 6.08984C81.4544 5.45964 82.6146 5.14453 83.918 5.14453C85.2214 5.14453 86.3779 5.45964 87.3877 6.08984C88.4046 6.71289 89.1888 7.61165 89.7402 8.78613C90.2988 9.95345 90.5781 11.3034 90.5781 12.8359V13.5342ZM87.3125 12.8252C87.3125 11.1852 87.0189 9.93913 86.4316 9.08691C85.8444 8.2347 85.0065 7.80859 83.918 7.80859C82.8366 7.80859 82.0023 8.23112 81.415 9.07617C80.8278 9.91406 80.5306 11.1458 80.5234 12.7715V13.5342C80.5234 15.1312 80.8171 16.3701 81.4043 17.251C81.9915 18.1318 82.8366 18.5723 83.9395 18.5723C85.0208 18.5723 85.8516 18.1497 86.4316 17.3047C87.0117 16.4525 87.3053 15.2135 87.3125 13.5879V12.8252ZM105.639 21H102.416L96.1426 10.709V21H92.9199V5.35938H96.1426L102.427 15.6719V5.35938H105.639V21ZM117.863 14.2217H111.676V18.4111H118.938V21H108.453V5.35938H118.916V7.96973H111.676V11.6973H117.863V14.2217ZM128.938 16.8965C128.938 16.2878 128.724 15.8223 128.294 15.5C127.864 15.1706 127.091 14.8268 125.974 14.4688C124.856 14.1035 123.972 13.7454 123.32 13.3945C121.544 12.4349 120.656 11.1423 120.656 9.5166C120.656 8.67155 120.893 7.9196 121.365 7.26074C121.845 6.59473 122.529 6.07552 123.417 5.70312C124.312 5.33073 125.315 5.14453 126.425 5.14453C127.542 5.14453 128.537 5.34863 129.411 5.75684C130.285 6.15788 130.962 6.72721 131.441 7.46484C131.928 8.20247 132.172 9.04036 132.172 9.97852H128.949C128.949 9.26237 128.724 8.70736 128.272 8.31348C127.821 7.91243 127.188 7.71191 126.371 7.71191C125.583 7.71191 124.971 7.88021 124.534 8.2168C124.097 8.54622 123.879 8.98307 123.879 9.52734C123.879 10.0358 124.133 10.4619 124.642 10.8057C125.157 11.1494 125.913 11.4717 126.908 11.7725C128.742 12.3239 130.077 13.0078 130.915 13.8242C131.753 14.6406 132.172 15.6576 132.172 16.875C132.172 18.2285 131.66 19.292 130.636 20.0654C129.612 20.8317 128.233 21.2148 126.5 21.2148C125.297 21.2148 124.201 20.9964 123.213 20.5596C122.225 20.1156 121.469 19.5104 120.946 18.7441C120.431 17.9779 120.173 17.0898 120.173 16.0801H123.406C123.406 17.806 124.438 18.6689 126.5 18.6689C127.266 18.6689 127.864 18.515 128.294 18.207C128.724 17.8919 128.938 17.4551 128.938 16.8965ZM137.79 21H134.567V5.35938H137.79V21ZM149.811 17.7773H144.16L143.086 21H139.659L145.481 5.35938H148.468L154.322 21H150.896L149.811 17.7773ZM145.03 15.167H148.94L146.975 9.3125L145.03 15.167ZM161.262 21V5.35938H166.74C168.638 5.35938 170.077 5.72461 171.059 6.45508C172.04 7.17839 172.53 8.24186 172.53 9.64551C172.53 10.4118 172.333 11.0885 171.939 11.6758C171.546 12.2559 170.998 12.682 170.296 12.9541C171.098 13.1546 171.728 13.5592 172.187 14.168C172.652 14.7767 172.885 15.5215 172.885 16.4023C172.885 17.9062 172.405 19.0449 171.445 19.8184C170.486 20.5918 169.118 20.9857 167.342 21H161.262ZM164.484 14.1895V18.4111H167.245C168.004 18.4111 168.595 18.2321 169.018 17.874C169.447 17.5088 169.662 17.0075 169.662 16.3701C169.662 14.9378 168.921 14.2109 167.438 14.1895H164.484ZM164.484 11.9121H166.869C168.495 11.8835 169.308 11.2354 169.308 9.96777C169.308 9.25879 169.1 8.75033 168.685 8.44238C168.276 8.12728 167.628 7.96973 166.74 7.96973H164.484V11.9121ZM187.15 5.35938V15.6611C187.15 17.3727 186.613 18.7262 185.539 19.7217C184.472 20.7171 183.011 21.2148 181.156 21.2148C179.33 21.2148 177.88 20.7314 176.806 19.7646C175.731 18.7979 175.184 17.4694 175.162 15.7793V5.35938H178.385V15.6826C178.385 16.7067 178.628 17.4551 179.115 17.9277C179.609 18.3932 180.29 18.626 181.156 18.626C182.968 18.626 183.888 17.6735 183.917 15.7686V5.35938H187.15ZM197.903 16.8965C197.903 16.2878 197.688 15.8223 197.259 15.5C196.829 15.1706 196.056 14.8268 194.938 14.4688C193.821 14.1035 192.937 13.7454 192.285 13.3945C190.509 12.4349 189.621 11.1423 189.621 9.5166C189.621 8.67155 189.857 7.9196 190.33 7.26074C190.81 6.59473 191.494 6.07552 192.382 5.70312C193.277 5.33073 194.28 5.14453 195.39 5.14453C196.507 5.14453 197.502 5.34863 198.376 5.75684C199.25 6.15788 199.926 6.72721 200.406 7.46484C200.893 8.20247 201.137 9.04036 201.137 9.97852H197.914C197.914 9.26237 197.688 8.70736 197.237 8.31348C196.786 7.91243 196.152 7.71191 195.336 7.71191C194.548 7.71191 193.936 7.88021 193.499 8.2168C193.062 8.54622 192.844 8.98307 192.844 9.52734C192.844 10.0358 193.098 10.4619 193.606 10.8057C194.122 11.1494 194.878 11.4717 195.873 11.7725C197.706 12.3239 199.042 13.0078 199.88 13.8242C200.718 14.6406 201.137 15.6576 201.137 16.875C201.137 18.2285 200.625 19.292 199.601 20.0654C198.576 20.8317 197.198 21.2148 195.465 21.2148C194.262 21.2148 193.166 20.9964 192.178 20.5596C191.189 20.1156 190.434 19.5104 189.911 18.7441C189.396 17.9779 189.138 17.0898 189.138 16.0801H192.371C192.371 17.806 193.402 18.6689 195.465 18.6689C196.231 18.6689 196.829 18.515 197.259 18.207C197.688 17.8919 197.903 17.4551 197.903 16.8965Z" fill="#103555"/>
<defs>
<clipPath id="clip0_16:3395">
<rect width="31" height="17" fill="white" transform="translate(0 5)"/>
</clipPath>
</defs>
</svg>
