<?xml version="1.0" standalone="no"?>
<!DOCTYPE svg PUBLIC "-//W3C//DTD SVG 20010904//EN"
 "http://www.w3.org/TR/2001/REC-SVG-20010904/DTD/svg10.dtd">
<svg version="1.0" xmlns="http://www.w3.org/2000/svg"
 width="127.000000pt" height="127.000000pt" viewBox="0 0 127.000000 127.000000"
 preserveAspectRatio="xMidYMid meet">
<metadata>
Created by potrace 1.14, written by Peter Selinger 2001-2017
</metadata>
<g transform="translate(0.000000,127.000000) scale(0.100000,-0.100000)"
fill="#000000" stroke="none">
<path d="M276 967 c-58 -33 -78 -80 -78 -178 0 -44 3 -84 7 -87 4 -4 193 -7
421 -7 l414 -1 0 148 0 148 -362 0 c-357 0 -364 -1 -402 -23z"/>
<path d="M1071 843 l0 -149 27 0 c15 0 29 3 32 7 3 4 5 70 5 146 l0 138 -32 3
-32 3 0 -148z"/>
<path d="M1169 983 c0 -4 -1 -70 -2 -146 -2 -122 0 -138 15 -143 10 -3 21 -3
26 0 4 2 7 69 7 148 0 140 -1 143 -23 146 -12 2 -22 0 -23 -5z"/>
<path d="M1249 983 c0 -5 -1 -71 -2 -149 -2 -107 1 -141 11 -141 9 0 12 37 12
149 0 92 -4 148 -10 148 -5 0 -10 -3 -11 -7z"/>
<path d="M105 643 c-78 -41 -108 -100 -103 -208 l3 -70 82 1 c73 1 82 -1 93
-21 36 -67 148 -70 189 -5 l16 26 207 0 c194 0 208 -1 214 -19 8 -24 62 -57
96 -57 38 0 74 18 89 46 6 13 20 26 31 30 16 5 18 18 18 150 l0 144 -452 0
c-393 -1 -457 -3 -483 -17z"/>
<path d="M1071 516 l-1 -144 24 -4 c14 -3 28 -2 33 1 5 3 8 70 8 149 l1 142
-33 0 -32 0 0 -144z"/>
<path d="M1169 658 c0 -2 -2 -65 -2 -141 -2 -117 1 -140 14 -147 30 -17 35 4
35 148 -1 141 -1 142 -23 142 -13 0 -23 -1 -24 -2z"/>
<path d="M1249 656 c-2 -2 -3 -62 -2 -133 2 -170 2 -165 13 -158 6 4 10 65 10
151 0 126 -4 156 -21 140z"/>
</g>
</svg>
