<svg width="158" height="26" viewBox="0 0 158 26" fill="none" xmlns="http://www.w3.org/2000/svg">
<g clip-path="url(#clip0_56:4416)">
<path d="M37.5625 5.89733C37.1361 6.71704 36.5354 7.43447 35.8022 7.99975C35.0398 8.60735 34.2005 9.11274 33.306 9.50299L32.2498 8.10137C33.422 7.60641 34.4667 6.85415 35.3058 5.90083C36.1145 5.00077 36.5554 3.83196 36.5415 2.62455V0.97765H38.5589V2.63857C38.5451 3.84597 38.9859 5.01479 39.7947 5.91485C40.6348 6.8686 41.6807 7.62088 42.8542 8.11539L41.798 9.517C40.905 9.12588 40.067 8.62054 39.3053 8.01377C38.5713 7.44829 37.9755 6.72472 37.5625 5.89733ZM35.9782 11.3741H46.4524V17.7235H35.9782V11.3741ZM44.428 12.9299H37.9956V16.1467H44.435L44.428 12.9299ZM44.428 0.833984H46.4454V4.9197H49.0718V6.51754H46.4454V10.1302H44.428V0.833984Z" fill="#15181C"/>
<path d="M46.6849 17.9722H35.7495V11.1428H46.6849V17.9722ZM36.2142 17.4921H46.2272V11.6054H36.2142V17.4921ZM44.6639 16.3779H37.7633V12.7161H44.6639V16.3779ZM38.2245 15.9153H44.2098V13.1612H38.2245V15.9153ZM46.6743 10.3579H44.2098V0.602661H46.6743V4.69188H49.2972V6.75926H46.6743V10.3579ZM44.6639 9.9129H46.2201V6.28622H48.8431V5.15091H46.2201V1.06169H44.6639V9.9129ZM33.211 9.80428L31.8872 8.05226L32.1548 7.93662C33.2941 7.45205 34.3104 6.72063 35.1298 5.79565C35.8994 4.93574 36.3198 3.82155 36.3092 2.67005V0.777863H38.7738V2.67005C38.7625 3.82167 39.1831 4.93609 39.9532 5.79565C40.7718 6.72142 41.7884 7.45298 42.9282 7.93662L43.1958 8.05226L41.872 9.80428L41.703 9.73069C40.7901 9.33338 39.9341 8.81729 39.1575 8.19592C38.5119 7.69845 37.9641 7.08668 37.5415 6.39134C37.1104 7.08467 36.5584 7.69579 35.9114 8.19592C35.1433 8.80922 34.2983 9.32043 33.3976 9.71668L33.211 9.80428ZM37.5661 5.35765L37.7704 5.78164C38.1735 6.57663 38.7525 7.2703 39.4638 7.81048C40.1599 8.37072 40.9241 8.84162 41.7382 9.21209L42.4952 8.19943C41.3976 7.69517 40.4188 6.96693 39.6223 6.06196C38.7783 5.1205 38.3164 3.90018 38.3266 2.63851V1.20886H36.7705V2.63851C36.7817 3.89805 36.3225 5.11685 35.4819 6.05846C34.684 6.96352 33.704 7.69172 32.6054 8.19592L33.3659 9.21209C34.1792 8.83998 34.9431 8.3692 35.6403 7.81048C36.3535 7.26655 36.9387 6.57413 37.3549 5.78164L37.5661 5.35765Z" fill="#13171C"/>
<path d="M60.4614 4.02958H56.9055C56.8851 5.28163 57.295 6.50307 58.0673 7.49158C58.8781 8.48909 59.9047 9.2916 61.0705 9.83929L60.0143 11.29C59.1372 10.8366 58.321 10.275 57.585 9.61853C56.8905 9.00929 56.3151 8.27749 55.888 7.46004C55.4699 8.28433 54.8948 9.01982 54.1945 9.62554C53.4653 10.2793 52.6576 10.8407 51.7899 11.297L50.7336 9.8463C51.8885 9.29544 52.9041 8.49306 53.7051 7.49859C54.4697 6.50421 54.8876 5.28872 54.8951 4.03659H51.3533V2.45977H54.9092V0.231201H56.9055V2.45276H60.4614V4.02958ZM54.5008 17.7234V12.4673H56.5393V16.1466H65.1053V17.7234H54.5008ZM62.9506 0.833897H64.9645V13.3048H62.9365V7.10964H59.6587V5.53282H62.9365L62.9506 0.833897Z" fill="#15181C"/>
<path d="M65.3343 17.9722H54.2687V12.2431H56.7684V15.9154H65.3343V17.9722ZM54.7299 17.5097H64.8731V16.3779H56.3072V12.7162H54.7299V17.5097ZM65.1829 13.5501H62.7184V7.35148H59.4441V5.31213H62.7184V0.602696H65.1829V13.5501ZM63.1656 13.0666H64.7323V1.06173H63.1761V5.77466H59.9018V6.88895H63.1761L63.1656 13.0666ZM51.7056 11.5879L50.3923 9.75175L50.6353 9.63262C51.7566 9.09468 52.7439 8.31554 53.5258 7.35148C54.2113 6.46064 54.6058 5.38192 54.6559 4.26092H51.1246V2.22156H54.6806V0H57.1451V2.22156H60.701V4.26092H57.1451C57.1719 5.38171 57.558 6.46463 58.2471 7.35148C59.0401 8.31854 60.0396 9.09777 61.1728 9.63262L61.4158 9.75175L60.1025 11.5879L59.923 11.4968C59.0341 11.0324 58.2063 10.4604 57.4584 9.7938C56.848 9.2566 56.3243 8.62903 55.9058 7.93315C55.4946 8.63111 54.974 9.25923 54.3637 9.7938C53.6152 10.4585 52.7875 11.0293 51.8992 11.4933L51.7056 11.5879ZM55.8741 6.93801L56.0818 7.34798C56.503 8.14331 57.0661 8.85572 57.7436 9.4504C58.4157 10.0476 59.1554 10.5651 59.9476 10.9922L60.7151 9.94097C59.6169 9.38566 58.6487 8.60597 57.8739 7.65283C57.0723 6.62171 56.6454 5.35075 56.6628 4.04717V3.8159H60.2222V2.68059H56.6733V0.452022H55.1418V2.67008H51.5859V3.78787H55.1488V4.02615C55.1395 5.32783 54.7044 6.59107 53.9095 7.6248C53.142 8.57539 52.1824 9.35493 51.093 9.91294L51.857 10.9642C52.641 10.5343 53.3733 10.017 54.0398 9.42237C54.7163 8.83197 55.2731 8.11837 55.6805 7.31995L55.8741 6.93801Z" fill="#13171C"/>
<path d="M69.6155 6.68574H75.8366V3.40595H69.6155V1.80811H77.854V8.24153H71.6293V11.644H75.5338C76.1418 11.644 76.8459 11.6124 77.6463 11.5493C78.3544 11.4992 79.0595 11.4127 79.7587 11.2901L79.9101 12.8669C79.1967 12.9893 78.4776 13.0758 77.7554 13.1262C76.9527 13.1892 76.2403 13.2208 75.6183 13.2208H69.6155V6.68574ZM81.1952 0.833984H83.2126V17.7235H81.1952V0.833984Z" fill="#15181C"/>
<path d="M83.4414 17.9722H80.9768V0.602661H83.4414V17.9722ZM81.4275 17.5097H82.9801V1.06169H81.4275V17.5097ZM75.6464 13.452H69.3831V6.4439H75.6077V3.64067H69.3831V1.57678H78.0863V8.47274H71.8617V11.4126H75.5338C76.1323 11.4126 76.8435 11.3811 77.6462 11.3215C78.4489 11.262 79.1531 11.1709 79.7587 11.0657L80.0051 11.0202L80.1882 13.0665L79.977 13.1016C79.3397 13.2137 78.6039 13.3013 77.7976 13.3644C76.9914 13.4275 76.2661 13.452 75.6464 13.452ZM69.8478 12.9895H75.6464C76.2555 12.9895 76.9702 12.9579 77.7589 12.8983C78.463 12.8423 79.1073 12.7687 79.6812 12.6776L79.5756 11.5598C79.0193 11.6509 78.3821 11.7245 77.6744 11.7806C76.8611 11.8436 76.1429 11.8752 75.5303 11.8752H71.4004V8.02072H77.6251V2.06385H69.8443V3.19916H76.0689V6.91344H69.8443L69.8478 12.9895Z" fill="#13171C"/>
<path d="M89.9549 1.70299V11.0413H91.6237C92.2328 11.0413 92.9017 11.0097 93.6305 10.9502C94.3593 10.8906 95.0388 10.8135 95.6373 10.7294L95.8099 12.2887C95.162 12.3973 94.4649 12.4849 93.7291 12.548C92.9933 12.6111 92.3208 12.6391 91.6906 12.6391H87.9375V1.70299H89.9549ZM96.5915 1.06175H98.63V17.2259H96.5915V7.18331H93.1658V5.60649H96.5915V1.06175ZM100.193 0.833984H102.207V17.7235H100.193V0.833984Z" fill="#15181C"/>
<path d="M102.439 17.9722H99.9747V0.602661H102.439V17.9722ZM100.422 17.5097H101.978V1.06169H100.422V17.5097ZM98.8622 17.4746H96.3589V7.41452H92.9333V5.37517H96.3589V0.819911H98.8622V17.4746ZM96.8237 17.0121H98.3974V1.29296H96.8237V5.84821H93.398V6.9625H96.8237V17.0121ZM91.6904 12.8703H87.7085V1.47166H90.173V10.8099H91.6095C92.208 10.8099 92.8769 10.7819 93.5987 10.7188C94.3204 10.6558 95.007 10.5857 95.5914 10.5016L95.8273 10.47L96.0526 12.4779L95.8379 12.5129C95.1865 12.625 94.4789 12.7126 93.7254 12.7757C92.972 12.8388 92.3171 12.8703 91.6904 12.8703ZM88.1697 12.4078H91.6904C92.3031 12.4078 92.9826 12.3797 93.7113 12.3167C94.3592 12.2606 94.9788 12.187 95.5562 12.0959L95.433 10.9886C94.8873 11.0622 94.2888 11.1253 93.6515 11.1779C92.9192 11.2409 92.2432 11.2725 91.6236 11.2725H89.7294V1.9342H88.1767L88.1697 12.4078Z" fill="#13171C"/>
<path d="M105.397 13.5326H121.24V15.1095H105.397V13.5326ZM107.861 1.41565H118.811V2.99247H109.886V5.2736H118.797V6.8294H109.886V9.15258H118.952V10.7504H107.847L107.861 1.41565Z" fill="#15181C"/>
<path d="M121.479 15.3408H105.164V13.3014H121.479V15.3408ZM105.636 14.8782H121.025V13.7674H105.629L105.636 14.8782ZM119.187 10.9817H107.615V1.17041H119.029V3.22028H110.118V5.04238H119.029V7.06071H110.118V8.92486H119.18L119.187 10.9817ZM108.087 10.5227H118.726V9.38389H109.653V6.58065H118.568V5.50491H109.653V2.76125H118.568V1.64346H108.079L108.087 10.5227Z" fill="#13171C"/>
<path d="M130.095 9.32083V11.7737H128.081V9.32083H123.655V7.72298H130.985C131.622 7.72298 132.308 7.69145 133.045 7.62838C133.784 7.5653 134.453 7.48821 135.062 7.3901L135.193 8.96692C134.555 9.06503 133.872 9.14563 133.144 9.21571C132.415 9.28579 131.735 9.32083 131.137 9.32083H130.095ZM129.077 0.452097C129.648 0.447052 130.216 0.538278 130.757 0.721908C131.237 0.880438 131.688 1.11726 132.091 1.42272C132.46 1.71605 132.763 2.08237 132.982 2.49846C133.195 2.91283 133.306 3.37159 133.306 3.837C133.306 4.30241 133.195 4.76117 132.982 5.17555C132.765 5.58632 132.461 5.94508 132.091 6.22676C131.693 6.5431 131.241 6.78633 130.757 6.94509C130.215 7.12173 129.647 7.20931 129.077 7.20439C128.499 7.21067 127.923 7.12309 127.373 6.94509C126.891 6.78555 126.44 6.54236 126.042 6.22676C125.673 5.94665 125.372 5.58733 125.162 5.17555C124.956 4.75918 124.849 4.3012 124.849 3.837C124.849 3.3728 124.956 2.91482 125.162 2.49846C125.375 2.08134 125.675 1.7145 126.042 1.42272C126.444 1.11814 126.894 0.881382 127.373 0.721908C127.922 0.536923 128.498 0.445697 129.077 0.452097V0.452097ZM129.077 2.02892C128.497 2.00175 127.926 2.18611 127.472 2.54751C127.282 2.70504 127.13 2.90201 127.026 3.12452C126.921 3.34702 126.867 3.58964 126.867 3.83525C126.867 4.08086 126.921 4.32348 127.026 4.54598C127.13 4.76849 127.282 4.96546 127.472 5.12299C127.937 5.45994 128.497 5.64148 129.072 5.64148C129.647 5.64148 130.207 5.45994 130.672 5.12299C130.865 4.9676 131.02 4.77135 131.127 4.54856C131.234 4.32577 131.289 4.08207 131.289 3.83525C131.289 3.58843 131.234 3.34473 131.127 3.12194C131.02 2.89915 130.865 2.7029 130.672 2.54751C130.222 2.18437 129.656 1.99521 129.077 2.0149V2.02892ZM137.992 12.4044V17.7235H135.974V13.9672H126.908V12.3904L137.992 12.4044ZM135.974 0.841046H137.992V11.9839H135.974V11.3952H132.049V9.79738H135.974V0.841046Z" fill="#15181C"/>
<path d="M138.224 17.9723H135.742V14.1984H126.676V12.159H135.742V11.6264H131.816V9.56255H135.742V0.602713H138.224V17.9723ZM136.203 17.4922H137.759V12.6216H127.141V13.7394H136.203V17.4922ZM136.203 11.7456H137.759V1.06174H136.203V10.0286H132.281V11.1639H136.203V11.7456ZM130.327 12.0154H127.862V9.56255H123.423V7.49166H130.985C131.612 7.49166 132.299 7.46013 133.027 7.39705C133.756 7.33398 134.436 7.25689 135.027 7.16228L135.274 7.12374L135.439 9.16309L135.228 9.19463C134.591 9.29274 133.897 9.37684 133.165 9.44692C132.432 9.517 131.756 9.54854 131.137 9.54854H130.327V12.0154ZM128.31 11.5564H129.866V9.08951H131.137C131.735 9.08951 132.404 9.05447 133.122 8.98789C133.763 8.92482 134.372 8.85474 134.943 8.77064L134.851 7.65635C134.305 7.73695 133.707 7.80352 133.066 7.85959C132.327 7.91916 131.626 7.9542 130.985 7.9542H123.881V9.08951H128.303L128.31 11.5564ZM129.077 7.43209C128.474 7.43717 127.873 7.34487 127.299 7.15878C126.788 6.99172 126.311 6.73543 125.891 6.40191C125.497 6.09924 125.175 5.7125 124.951 5.2701C124.721 4.81923 124.601 4.32131 124.599 3.81592C124.603 3.31861 124.723 2.82911 124.951 2.38627C125.18 1.94016 125.5 1.54639 125.891 1.22994C126.318 0.910066 126.793 0.659358 127.299 0.487079C128.443 0.115147 129.676 0.115147 130.82 0.487079C131.327 0.65702 131.802 0.907918 132.228 1.22994C132.624 1.54365 132.949 1.93637 133.182 2.38277C133.414 2.82509 133.535 3.31689 133.534 3.81592C133.536 4.32292 133.416 4.82294 133.182 5.2736C132.952 5.71622 132.628 6.10363 132.232 6.40891C131.812 6.74285 131.335 6.99812 130.823 7.16228C130.26 7.34616 129.67 7.43844 129.077 7.4356V7.43209ZM129.077 0.665785C128.524 0.66046 127.975 0.746911 127.451 0.921581C126.994 1.07645 126.566 1.30363 126.183 1.59436C125.844 1.86577 125.566 2.20626 125.37 2.59301C125.178 2.97218 125.079 3.39129 125.081 3.81592C125.077 4.24862 125.176 4.67616 125.37 5.06336C125.564 5.44683 125.842 5.78211 126.183 6.04449C126.561 6.34416 126.991 6.57327 127.451 6.72077C128.502 7.05025 129.631 7.05025 130.683 6.72077C131.141 6.5775 131.569 6.35315 131.947 6.05851C132.291 5.79437 132.574 5.45828 132.774 5.07387C132.975 4.68993 133.077 4.26273 133.073 3.82994C133.076 3.40516 132.973 2.98632 132.774 2.61053C132.57 2.22134 132.289 1.87787 131.947 1.60137C131.562 1.31418 131.134 1.08947 130.679 0.935597C130.164 0.758196 129.622 0.668175 129.077 0.66929V0.665785ZM129.077 5.85177C128.44 5.88036 127.813 5.67598 127.317 5.27711C127.101 5.09889 126.928 4.87557 126.808 4.62302C126.689 4.37048 126.628 4.09491 126.628 3.81592C126.628 3.53693 126.689 3.26136 126.808 3.00882C126.928 2.75628 127.101 2.53295 127.317 2.35473C127.823 1.98177 128.435 1.78045 129.065 1.78045C129.694 1.78045 130.307 1.98177 130.813 2.35473C131.032 2.53113 131.209 2.75404 131.33 3.00716C131.451 3.26028 131.514 3.5372 131.514 3.81767C131.514 4.09814 131.451 4.37507 131.33 4.62819C131.209 4.88131 131.032 5.10422 130.813 5.28061C130.323 5.6741 129.706 5.87817 129.077 5.85527V5.85177ZM129.077 2.24261C128.552 2.21695 128.036 2.38125 127.623 2.70514C127.459 2.84061 127.327 3.01038 127.237 3.20236C127.146 3.39434 127.099 3.60383 127.099 3.81592C127.099 4.02801 127.146 4.2375 127.237 4.42948C127.327 4.62147 127.459 4.79123 127.623 4.9267C128.044 5.23125 128.551 5.39528 129.072 5.39528C129.592 5.39528 130.1 5.23125 130.521 4.9267C130.687 4.79339 130.822 4.62454 130.914 4.4326C131.007 4.24066 131.055 4.03052 131.055 3.81767C131.055 3.60482 131.007 3.39468 130.914 3.20275C130.822 3.01081 130.687 2.84196 130.521 2.70864C130.111 2.38661 129.599 2.22238 129.077 2.24611V2.24261Z" fill="#13171C"/>
<path d="M141.914 13.5326H157.757V15.1094H141.914V13.5326ZM150.849 1.24744V2.09892C150.849 2.77457 150.978 3.44408 151.23 4.0717C151.496 4.72573 151.873 5.32911 152.346 5.85525C152.862 6.44075 153.465 6.94415 154.134 7.34798C154.895 7.8079 155.716 8.16161 156.574 8.39919L155.62 9.83234C154.232 9.43177 152.946 8.74264 151.846 7.81051C151.054 7.13377 150.381 6.33095 149.853 5.43477C149.31 6.33146 148.624 7.13393 147.822 7.81051C146.724 8.73549 145.446 9.42499 144.069 9.83585L143.114 8.40269C143.97 8.16781 144.788 7.81392 145.544 7.35148C146.213 6.94311 146.819 6.4403 147.343 5.85876C147.807 5.32795 148.182 4.72558 148.452 4.0752C148.707 3.44853 148.839 2.77869 148.839 2.10242V1.24744H150.849Z" fill="#15181C"/>
<path d="M158 15.3406H141.685V13.3013H158V15.3406ZM142.157 14.8781H157.546V13.7673H142.146L142.157 14.8781ZM143.977 10.1126L142.752 8.27299L143.055 8.18539C143.89 7.94668 144.687 7.59285 145.424 7.13417C146.078 6.73781 146.671 6.24917 147.184 5.6835C147.627 5.17158 147.984 4.59177 148.241 3.96652C148.486 3.368 148.613 2.72782 148.614 2.08134V1.01611H151.078V2.09886C151.076 2.74368 151.195 3.38323 151.43 3.98404C151.681 4.61242 152.038 5.19322 152.487 5.70102C152.99 6.26904 153.576 6.75812 154.226 7.15169C154.968 7.60974 155.77 7.96349 156.609 8.20291L156.912 8.29051L155.687 10.1301L155.518 10.0741C153.176 9.41429 151.151 7.93477 149.818 5.90776C149.285 6.68621 148.653 7.39287 147.938 8.01018C146.816 8.95429 145.511 9.65913 144.104 10.0811L143.977 10.1126ZM149.867 4.96167L150.068 5.32959C150.584 6.20298 151.242 6.98555 152.015 7.64576C153.044 8.51859 154.243 9.17212 155.536 9.56598L156.222 8.53579C155.451 8.29796 154.713 7.96481 154.025 7.54415C153.336 7.12706 152.714 6.60841 152.18 6.00587C151.691 5.46018 151.3 4.8342 151.026 4.15574C150.766 3.5008 150.635 2.80274 150.638 2.09886V1.47865H149.082V2.09886C149.081 2.80401 148.944 3.50237 148.677 4.15574C148.397 4.82988 148.01 5.45463 147.529 6.00587C146.988 6.6028 146.365 7.12066 145.678 7.54415C144.994 7.9648 144.259 8.29798 143.491 8.53579L144.157 9.56247C145.448 9.16348 146.645 8.5105 147.677 7.64226C148.461 6.98176 149.133 6.19964 149.667 5.32609L149.867 4.96167Z" fill="#13171C"/>
<path d="M32.5106 25.061C32.5638 25.0063 32.6359 24.9737 32.7124 24.9698C32.7888 24.9659 32.8639 24.991 32.9225 25.0399C33.0981 25.233 33.3162 25.3829 33.5597 25.4779C33.869 25.5989 34.1992 25.6584 34.5315 25.6531C34.7583 25.6518 34.9819 25.6003 35.1863 25.5025C35.3363 25.4489 35.4659 25.3504 35.5573 25.2205C35.6487 25.0906 35.6975 24.9357 35.6968 24.7771C35.6968 24.5564 35.5489 24.3637 35.2567 24.192C34.9339 24.0361 34.5997 23.9049 34.2568 23.7995C33.859 23.6767 33.4736 23.5171 33.1056 23.323C32.9539 23.2543 32.8237 23.1461 32.7288 23.0098C32.634 22.8734 32.578 22.714 32.5669 22.5486C32.5653 22.3951 32.6021 22.2436 32.674 22.1078C32.746 21.972 32.8507 21.8561 32.9788 21.7707C33.3416 21.5311 33.7729 21.4155 34.2075 21.4413C34.5254 21.4389 34.8416 21.4875 35.1441 21.5849C35.3524 21.6612 35.5538 21.7549 35.7461 21.8653V21.8653C35.7842 21.8799 35.8186 21.9025 35.8472 21.9315C35.8757 21.9605 35.8977 21.9953 35.9116 22.0335C35.9208 22.0629 35.923 22.094 35.9181 22.1244C35.9132 22.1547 35.9014 22.1836 35.8834 22.2087C35.8646 22.2354 35.84 22.2575 35.8113 22.2733C35.7826 22.2891 35.7507 22.2982 35.7179 22.2998C35.6796 22.3059 35.6405 22.3041 35.6029 22.2944C35.5654 22.2848 35.5302 22.2675 35.4997 22.2437L35.4187 22.1911C35.2517 22.0776 35.0764 21.9769 34.8941 21.8898C34.6653 21.786 34.4168 21.7323 34.1653 21.7321C33.9116 21.7282 33.6614 21.7911 33.44 21.9143C33.3372 21.9615 33.2497 22.0364 33.1874 22.1305C33.1252 22.2247 33.0907 22.3343 33.088 22.4469C33.088 22.6677 33.2358 22.8604 33.5351 23.0321C33.8615 23.1956 34.2006 23.3327 34.5491 23.4421C34.9605 23.566 35.359 23.7291 35.7391 23.9292C35.8919 23.9989 36.0232 24.1082 36.1192 24.2456C36.2152 24.3831 36.2724 24.5436 36.2848 24.7106C36.2921 24.9091 36.2428 25.1057 36.1425 25.2775C36.0421 25.4493 35.8949 25.5893 35.7179 25.6812C35.2938 25.8841 34.8254 25.9781 34.3554 25.9545C33.9734 25.9578 33.5935 25.8962 33.2323 25.7723C32.9977 25.701 32.7806 25.5816 32.5951 25.4219C32.5367 25.3724 32.495 25.3064 32.4753 25.2327C32.4647 25.1731 32.4773 25.1117 32.5106 25.061V25.061Z" fill="#9DA0A1"/>
<path d="M39.4111 25.8669L41.3757 21.662C41.3905 21.6152 41.4187 21.5737 41.4568 21.5425C41.495 21.5114 41.5414 21.4921 41.5905 21.4868C41.6961 21.4868 41.7806 21.5429 41.8404 21.6725L43.6571 25.6356C43.6768 25.6613 43.6875 25.6927 43.6875 25.725C43.6875 25.7573 43.6768 25.7886 43.6571 25.8143C43.6305 25.8394 43.5989 25.8586 43.5643 25.8707C43.5297 25.8827 43.493 25.8874 43.4565 25.8844H43.1396L42.5411 24.5178H40.5096L39.9568 25.6812C39.9356 25.7426 39.8963 25.7963 39.8442 25.8353C39.7859 25.8624 39.7218 25.8744 39.6576 25.8704L39.4111 25.8669ZM41.5236 22.1876L40.6363 24.1113H42.3545L41.5236 22.1876Z" fill="#9DA0A1"/>
<path d="M46.8716 25.8669L47.3328 21.662C47.3328 21.5429 47.3786 21.4763 47.4701 21.4623C47.5546 21.4623 47.6215 21.4938 47.6743 21.5955L49.572 25.1381L51.3324 21.606C51.3507 21.5591 51.3841 21.5195 51.4275 21.4935C51.4708 21.4675 51.5215 21.4566 51.5718 21.4623C51.6633 21.4623 51.7196 21.5324 51.7372 21.6515L52.3674 25.6006C52.3742 25.6343 52.3732 25.6691 52.3647 25.7025C52.3562 25.7358 52.3403 25.7669 52.3182 25.7933C52.2921 25.8181 52.261 25.8372 52.2271 25.8492C52.1931 25.8613 52.157 25.8661 52.121 25.8634H51.8217L51.3535 22.5275L49.6987 25.7583C49.6792 25.7986 49.6479 25.8321 49.609 25.8546C49.5701 25.8771 49.5253 25.8875 49.4804 25.8844C49.4386 25.8837 49.3978 25.8715 49.3624 25.8493C49.327 25.827 49.2984 25.7955 49.2798 25.7583L47.6109 22.6817L47.2906 25.6812C47.2863 25.7348 47.264 25.7855 47.2272 25.8248C47.1835 25.8595 47.1279 25.8759 47.0723 25.8704L46.8716 25.8669Z" fill="#9DA0A1"/>
<path d="M59.5392 21.9528C59.5687 21.969 59.5945 21.991 59.6151 22.0176C59.6357 22.0441 59.6506 22.0745 59.6589 22.107C59.6645 22.1651 59.6468 22.223 59.6096 22.2682C59.5881 22.2977 59.5593 22.3213 59.526 22.3366C59.4928 22.3519 59.4561 22.3585 59.4195 22.3558C59.3801 22.3569 59.3408 22.3497 59.3044 22.3346C59.268 22.3195 59.2352 22.2968 59.2083 22.2682C58.9777 22.0567 58.6984 21.9051 58.395 21.8267C58.2226 21.7815 58.0452 21.7579 57.8669 21.7566C57.645 21.7553 57.4253 21.7988 57.2208 21.8843C57.0162 21.9698 56.8312 22.0956 56.6769 22.2541C56.4932 22.4334 56.3489 22.6487 56.2532 22.8864C56.1574 23.124 56.1123 23.3788 56.1206 23.6347C56.1071 24.1456 56.2811 24.6439 56.61 25.0364C56.7639 25.2274 56.9598 25.3807 57.1825 25.4846C57.4053 25.5885 57.6491 25.6401 57.895 25.6356C58.1646 25.6312 58.4296 25.5653 58.6696 25.4428C58.9445 25.3134 59.1801 25.1139 59.3526 24.8647C59.373 24.8357 59.4006 24.8124 59.4327 24.7971C59.4647 24.7817 59.5002 24.7748 59.5357 24.7771C59.6 24.7755 59.6639 24.7887 59.7223 24.8156C59.752 24.8312 59.7765 24.8551 59.7928 24.8844C59.809 24.9136 59.8163 24.947 59.8138 24.9803C59.8178 25.0107 59.8148 25.0417 59.8051 25.0708C59.7953 25.1 59.779 25.1265 59.7575 25.1485C59.51 25.4177 59.2061 25.6295 58.8672 25.7688C58.5283 25.9081 58.1627 25.9714 57.7965 25.9544C57.2087 25.9752 56.6365 25.7636 56.2051 25.3657C55.9797 25.1547 55.8029 24.8976 55.6868 24.6121C55.5708 24.3266 55.5181 24.0195 55.5326 23.7118C55.5236 23.1714 55.7041 22.6448 56.0431 22.2226C56.2525 21.9614 56.5214 21.7537 56.8275 21.6166C57.1337 21.4795 57.4682 21.4169 57.8035 21.4342C58.1011 21.4361 58.397 21.4773 58.6837 21.5568C58.9897 21.6386 59.2792 21.7726 59.5392 21.9528Z" fill="#9DA0A1"/>
<path d="M63.176 25.8669V21.5359H63.7358V23.4701H66.1792V21.5359H66.4609C66.5581 21.5286 66.6558 21.5286 66.7531 21.5359V25.5375C66.76 25.6186 66.7403 25.6998 66.6968 25.7687C66.6623 25.8048 66.6198 25.8325 66.5728 25.8495C66.5258 25.8665 66.4754 25.8725 66.4257 25.8669H66.1792V23.7925H63.7358V25.5445C63.7426 25.6288 63.7202 25.7128 63.6725 25.7828C63.6407 25.8161 63.6016 25.8417 63.5582 25.8575C63.5148 25.8733 63.4684 25.8789 63.4225 25.8739L63.176 25.8669Z" fill="#9DA0A1"/>
<path d="M70.5661 21.5358C70.6502 21.5271 70.735 21.5443 70.809 21.5848C70.8352 21.6142 70.855 21.6487 70.8672 21.6861C70.8793 21.7235 70.8835 21.763 70.8795 21.8021V24.7034C70.8821 24.8589 70.9296 25.0103 71.0164 25.1395C71.1032 25.2687 71.2256 25.3704 71.3688 25.4323C71.6673 25.5914 72.002 25.6711 72.3406 25.6635C72.6298 25.653 72.9123 25.5737 73.1644 25.4323C73.3207 25.3732 73.4568 25.2709 73.5566 25.1375C73.6564 25.004 73.7158 24.8449 73.7277 24.6789V21.5253H74.1537V24.728C74.1518 24.9128 74.0989 25.0935 74.0008 25.2505C73.9027 25.4074 73.7632 25.5346 73.5975 25.618C73.1831 25.8449 72.7145 25.9552 72.242 25.9369C71.7717 25.9502 71.3064 25.839 70.8935 25.6145C70.7086 25.5279 70.5517 25.3913 70.4409 25.2203C70.3301 25.0493 70.2698 24.8508 70.2668 24.6474V21.5358H70.5661Z" fill="#9DA0A1"/>
<path d="M78.037 25.8669C77.977 25.869 77.9172 25.8593 77.861 25.8382C77.8048 25.8172 77.7533 25.7852 77.7096 25.7442C77.6738 25.7112 77.6452 25.671 77.6258 25.6264C77.6064 25.5818 77.5966 25.5336 77.5969 25.4849V21.5359H78.1849V25.5375H80.6494V25.8669H78.037Z" fill="#9DA0A1"/>
<path d="M84.2687 25.8669C84.2082 25.8693 84.1477 25.8597 84.0909 25.8386C84.0341 25.8176 83.9821 25.7855 83.9378 25.7442C83.9026 25.7109 83.8747 25.6706 83.856 25.626C83.8372 25.5813 83.8279 25.5333 83.8287 25.4849V21.5359H84.4131V25.5375H86.8776V25.8669H84.2687Z" fill="#9DA0A1"/>
<path d="M91.5708 25.8669V24.1359L89.6379 21.5359H90.1273C90.2187 21.5321 90.3095 21.5514 90.3914 21.5919C90.4502 21.6246 90.5007 21.6701 90.5392 21.7251L91.9827 23.782L93.5002 21.5359H93.9544L92.1377 24.1569V25.5585C92.1412 25.6014 92.1355 25.6445 92.121 25.685C92.1064 25.7255 92.0833 25.7624 92.0532 25.7933C91.9806 25.8448 91.8922 25.8696 91.8032 25.8634L91.5708 25.8669Z" fill="#9DA0A1"/>
<path d="M101.76 25.8669V21.7601C101.76 21.655 101.791 21.5955 101.851 21.5814C101.911 21.5674 101.975 21.5814 102.048 21.6655L105.196 24.9418V21.5359H105.594V25.6286C105.594 25.7442 105.559 25.8143 105.492 25.8389C105.45 25.8471 105.406 25.8432 105.366 25.8277C105.326 25.8122 105.292 25.7857 105.266 25.7513L102.158 22.5976V25.7127C102.16 25.7375 102.155 25.7625 102.144 25.7848C102.133 25.8071 102.116 25.8258 102.094 25.8389C102.052 25.8687 102.001 25.8835 101.95 25.8809L101.76 25.8669Z" fill="#9DA0A1"/>
<path d="M109.695 25.8669C109.561 25.875 109.428 25.8366 109.319 25.7583C109.278 25.725 109.246 25.6831 109.224 25.6359C109.202 25.5886 109.191 25.537 109.192 25.485V21.9178C109.188 21.8634 109.196 21.8088 109.217 21.7583C109.238 21.7078 109.27 21.6629 109.312 21.627C109.422 21.5581 109.551 21.5262 109.681 21.5359H112.195V21.8863H109.766V23.4982H112.082V23.81H109.766V25.562H112.343V25.8914L109.695 25.8669Z" fill="#9DA0A1"/>
<path d="M117.191 25.9019V21.8583H115.431V21.5359H119.55V21.8583H117.765V25.562C117.775 25.6552 117.75 25.7487 117.695 25.8248C117.612 25.8863 117.509 25.9138 117.406 25.9019H117.191Z" fill="#9DA0A1"/>
<path d="M122.782 21.5358C122.863 21.5336 122.943 21.5556 123.011 21.5989C123.081 21.6474 123.131 21.7196 123.152 21.8021L124.296 25.4603L125.416 21.725C125.43 21.6685 125.465 21.6193 125.514 21.5864C125.563 21.5536 125.621 21.5393 125.68 21.5463C125.738 21.5443 125.795 21.562 125.841 21.5963C125.888 21.6307 125.922 21.6797 125.937 21.7355L127.07 25.5024L128.257 21.5358H128.609L127.243 25.8212C127.219 25.882 127.175 25.9329 127.118 25.9654C127.061 25.9979 126.994 26.0101 126.93 25.9999C126.867 26.0093 126.802 25.9966 126.748 25.964C126.693 25.9314 126.652 25.8809 126.63 25.8212L125.553 22.559L124.497 25.8212C124.458 25.9299 124.345 25.9824 124.162 25.9824C123.979 25.9824 123.856 25.9229 123.81 25.8072L122.402 21.5358H122.782Z" fill="#9DA0A1"/>
<path d="M133.989 21.4412C134.315 21.426 134.641 21.4807 134.945 21.6016C135.249 21.7225 135.523 21.9068 135.749 22.142C136.134 22.568 136.348 23.121 136.348 23.6943C136.348 24.2676 136.134 24.8205 135.749 25.2466C135.276 25.7005 134.645 25.9541 133.989 25.9541C133.332 25.9541 132.701 25.7005 132.228 25.2466C131.845 24.8195 131.633 24.2669 131.633 23.6943C131.633 23.1216 131.845 22.569 132.228 22.142C132.454 21.9062 132.728 21.7216 133.032 21.6006C133.335 21.4797 133.662 21.4253 133.989 21.4412V21.4412ZM133.989 21.7705C133.738 21.7642 133.49 21.8161 133.263 21.9219C133.036 22.0277 132.838 22.1847 132.682 22.3803C132.38 22.7547 132.221 23.2244 132.235 23.7048C132.22 24.1843 132.378 24.6534 132.682 25.0258C132.848 25.214 133.051 25.3648 133.28 25.4682C133.509 25.5715 133.757 25.625 134.008 25.625C134.259 25.625 134.507 25.5715 134.736 25.4682C134.964 25.3648 135.168 25.214 135.333 25.0258C135.636 24.6527 135.795 24.1841 135.781 23.7048C135.793 23.2246 135.635 22.7554 135.333 22.3803C135.174 22.1801 134.968 22.0206 134.735 21.9146C134.501 21.8086 134.245 21.7593 133.989 21.7705V21.7705Z" fill="#9DA0A1"/>
<path d="M139.759 21.9038C139.755 21.8528 139.763 21.8016 139.781 21.7537C139.799 21.7059 139.828 21.6626 139.865 21.627C139.956 21.5582 140.071 21.5258 140.185 21.5359H141.674C142.111 21.5155 142.543 21.6386 142.903 21.8863C143.027 21.9719 143.129 22.086 143.199 22.2189C143.27 22.3519 143.307 22.4998 143.308 22.6502C143.308 22.7813 143.281 22.911 143.229 23.0314C143.177 23.1519 143.101 23.2606 143.005 23.351C142.782 23.5666 142.496 23.7074 142.188 23.7539L143.392 25.6987C143.405 25.7206 143.411 25.7454 143.411 25.7705C143.411 25.7957 143.405 25.8204 143.392 25.8423C143.376 25.8638 143.355 25.8807 143.33 25.8911C143.305 25.9016 143.278 25.9053 143.252 25.9019H142.833L141.6 23.7995H140.319V25.5515C140.332 25.6559 140.304 25.7613 140.241 25.8458C140.168 25.8972 140.077 25.9185 139.988 25.9054H139.759V21.9038ZM140.319 23.4456H141.505C141.848 23.463 142.188 23.3762 142.481 23.1968C142.578 23.1396 142.659 23.0579 142.716 22.9599C142.772 22.8618 142.802 22.7508 142.802 22.6379C142.802 22.5249 142.772 22.414 142.716 22.3159C142.659 22.2179 142.578 22.1362 142.481 22.079C142.181 21.914 141.84 21.8375 141.498 21.8582H140.312L140.319 23.4456Z" fill="#9DA0A1"/>
<path d="M146.917 25.8669V21.5359H147.47V23.5157L149.8 21.5359H150.047C150.117 21.5359 150.156 21.5569 150.163 21.606C150.167 21.6296 150.163 21.6539 150.153 21.6753C150.142 21.6968 150.124 21.7142 150.103 21.7251L147.966 23.5787L150.29 25.6531C150.346 25.7022 150.364 25.7513 150.346 25.7968C150.328 25.8424 150.276 25.8774 150.191 25.8774H149.892L147.575 23.8731L147.47 23.9292V25.569C147.477 25.6458 147.455 25.7226 147.406 25.7828C147.334 25.8379 147.243 25.863 147.153 25.8529L146.917 25.8669Z" fill="#9DA0A1"/>
<path d="M153.923 25.0609C153.946 25.0296 153.976 25.0047 154.011 24.9887C154.046 24.9727 154.085 24.9662 154.124 24.9697C154.162 24.9638 154.201 24.9671 154.238 24.9793C154.275 24.9915 154.308 25.0122 154.335 25.0398C154.509 25.2335 154.726 25.3836 154.969 25.4778C155.278 25.5985 155.608 25.6581 155.94 25.653C156.167 25.6517 156.391 25.6002 156.595 25.5024C156.745 25.4488 156.875 25.3503 156.966 25.2204C157.058 25.0905 157.106 24.9356 157.106 24.777C157.106 24.5563 156.958 24.3635 156.666 24.1918C156.344 24.0358 156.011 23.9046 155.669 23.7994C155.269 23.6773 154.881 23.5177 154.511 23.3228C154.363 23.2597 154.235 23.1574 154.141 23.0272C154.047 22.8969 153.991 22.7436 153.978 22.5837C153.966 22.4239 153.997 22.2637 154.069 22.1204C154.141 21.977 154.252 21.8561 154.388 21.7706C154.75 21.5301 155.182 21.4144 155.616 21.4412C155.933 21.4391 156.248 21.4876 156.549 21.5848C156.758 21.6597 156.96 21.7535 157.152 21.8652V21.8652C157.19 21.8803 157.224 21.903 157.253 21.932C157.282 21.9609 157.305 21.9954 157.321 22.0334C157.329 22.0628 157.331 22.0938 157.326 22.1241C157.321 22.1543 157.31 22.1832 157.292 22.2086C157.273 22.2352 157.247 22.2572 157.218 22.2729C157.189 22.2887 157.157 22.2978 157.123 22.2997C157.086 22.3059 157.047 22.3042 157.01 22.2945C156.973 22.2849 156.938 22.2675 156.909 22.2436L156.824 22.191C156.658 22.0768 156.482 21.976 156.3 21.8897C156.072 21.7864 155.825 21.7327 155.574 21.732C155.319 21.7281 155.068 21.791 154.845 21.9142C154.743 21.9614 154.655 22.0363 154.593 22.1304C154.531 22.2245 154.496 22.3342 154.493 22.4468C154.493 22.6676 154.645 22.8603 154.941 23.032C155.267 23.1949 155.606 23.3319 155.954 23.442C156.367 23.5657 156.767 23.7288 157.148 23.929C157.299 24.001 157.427 24.1117 157.521 24.2496C157.614 24.3876 157.669 24.5479 157.68 24.7139C157.688 24.9105 157.64 25.1053 157.542 25.2763C157.445 25.4472 157.301 25.5875 157.127 25.6811C156.703 25.884 156.234 25.978 155.764 25.9544C155.382 25.9577 155.002 25.8961 154.641 25.7722C154.407 25.7003 154.19 25.581 154.004 25.4218C153.946 25.3729 153.905 25.3065 153.888 25.2325C153.881 25.2031 153.881 25.1725 153.887 25.1429C153.893 25.1132 153.905 25.0853 153.923 25.0609V25.0609Z" fill="#9DA0A1"/>
<path d="M27.9759 11.0413C27.9759 11.0413 25.191 4.28195 18.8219 3.56362C18.8219 3.56362 6.43953 1.31753 4.40454 11.9979C4.40454 11.9979 5.10869 0.620225 16.7588 0.515104C16.7553 0.515104 25.955 0.101627 27.9759 11.0413Z" fill="#036980"/>
<path d="M3.04539 2.64197C3.04539 2.64197 0.580877 9.78321 4.28821 14.6048C4.28821 14.6048 11.1431 24.1358 20.1315 18.7886C20.1315 18.7886 12.0726 25.7967 3.28832 17.7374C3.28832 17.7234 -3.94679 10.6137 3.04539 2.64197Z" fill="#DA6F30"/>
<path d="M7.52368 24.0657C7.52368 24.0657 14.7165 25.5339 18.8076 21.0207C18.8076 21.0207 27.4546 12.7407 19.811 5.00024C19.811 5.00024 28.2256 11.1779 22.5079 20.9471C22.5079 20.9471 18.0507 28.5649 7.52368 24.0657Z" fill="#40AADD"/>
<path d="M20.209 15.7542H18.6669L15.8292 11.665V15.7647H14.2871V9.05798H15.8292L18.6669 13.1542V9.05798H20.209V15.7542Z" fill="#A9ACAC"/>
<path d="M8.18921 15.7508V13.9987H11.8156L8.18921 10.803V9.05103H14.1181V10.803H10.4882L14.1181 14.0092V15.7613L8.18921 15.7508Z" fill="#A9ACAC"/>
</g>
<defs>
<clipPath id="clip0_56:4416">
<rect width="158" height="26" fill="white"/>
</clipPath>
</defs>
</svg>
