<svg width="8" height="6" viewBox="0 0 8 6" fill="none" xmlns="http://www.w3.org/2000/svg">
<path d="M1.93443 1.35543C2.35737 0.969275 2.96251 0.959839 3.54855 1.04869C4.16008 0.975696 4.77803 1.11574 5.29897 1.44539C5.81991 1.77504 6.21223 2.27429 6.41025 2.85957C6.47088 3.03461 6.51305 3.21554 6.53607 3.3994C6.56336 3.62093 6.56214 3.85159 6.48483 4.06094C6.36356 4.38533 6.07888 4.61659 5.79025 4.80617C5.11568 5.24862 4.32591 5.5587 3.52097 5.51914C2.71603 5.47958 1.90382 5.03926 1.56456 4.3053C1.33172 3.80199 1.33687 3.22139 1.40266 2.6703L1.4063 2.6423C1.4639 2.17064 1.58517 1.67464 1.93443 1.35543Z" fill="#592E2E"/>
<path d="M1.59169 1.01134C2.06314 0.597188 2.66676 0.474553 3.27948 0.529022C3.35861 0.536021 3.43683 0.546068 3.51536 0.556718L3.57994 0.565537C3.63269 0.578013 3.64421 0.577708 3.61389 0.565537C3.5675 0.574361 3.65846 0.553062 3.67453 0.551845C3.81684 0.542407 3.95968 0.544236 4.10171 0.55732C4.40469 0.580814 4.70283 0.647206 4.98729 0.754512C6.14755 1.21096 7.02404 2.34599 7.03799 3.62435C7.04557 4.34036 6.62142 4.83881 6.05538 5.21462C5.55787 5.54508 4.99123 5.81074 4.40428 5.93002C3.26039 6.1619 2.02494 5.83539 1.32308 4.85372C0.920159 4.29016 0.837996 3.55984 0.896206 2.88612C0.954416 2.2124 1.08296 1.497 1.59352 1.01256C1.77785 0.837281 2.09891 0.815067 2.2796 1.01256C2.45332 1.20244 2.47637 1.51404 2.2796 1.70118C2.23954 1.7384 2.20178 1.77803 2.16652 1.81986C2.13074 1.86307 2.16652 1.81986 2.17198 1.81377C2.1547 1.83933 2.13741 1.8652 2.12165 1.89167C2.09345 1.93854 2.0689 1.98722 2.04525 2.03622C2.0216 2.08521 2.04525 2.03621 2.04768 2.028C2.03312 2.06482 2.02008 2.10225 2.00796 2.13998C1.97591 2.23889 1.94959 2.33958 1.92914 2.44154C1.91792 2.49662 1.90822 2.552 1.89882 2.60738C1.897 2.61956 1.88275 2.71815 1.89063 2.66125C1.8973 2.61134 1.88638 2.69654 1.88638 2.69807C1.85341 2.95735 1.84326 3.21904 1.85607 3.48011C1.85849 3.51998 1.8688 3.62922 1.8688 3.62861C1.8688 3.62801 1.89033 3.74151 1.8976 3.77376C1.90933 3.8259 1.92297 3.87732 1.93853 3.92804C1.94884 3.96212 1.96036 3.9956 1.97218 4.02907C1.97582 4.03911 2.00432 4.10423 1.98431 4.0595C2.02871 4.15143 2.07936 4.24019 2.1359 4.32515C2.14469 4.33915 2.19077 4.39909 2.13772 4.33124C2.15106 4.34858 2.16501 4.36502 2.17926 4.38175C2.21655 4.42588 2.25626 4.46817 2.29749 4.50895C2.33357 4.54455 2.37177 4.57802 2.40967 4.6118C2.41331 4.61515 2.47031 4.6614 2.42847 4.62884C2.38663 4.59628 2.45667 4.64893 2.46697 4.65623C2.55687 4.71958 2.65108 4.77652 2.74892 4.82663C2.78803 4.84672 2.82806 4.86559 2.86838 4.88385C2.78592 4.84672 2.91537 4.90058 2.93751 4.90849C3.04204 4.94586 3.14887 4.97635 3.25735 4.99978C3.28767 5.00586 3.31526 5.01104 3.34437 5.01652C3.35074 5.01652 3.4232 5.02961 3.36711 5.02109C3.31102 5.01257 3.38348 5.02291 3.39045 5.02352C3.42077 5.02625 3.44896 5.02899 3.47807 5.03112C3.60596 5.03979 3.7343 5.03979 3.8622 5.03112L3.94011 5.02504C3.9486 5.02504 4.03501 5.01469 3.96649 5.02352C4.01833 5.01682 4.06987 5.00739 4.12111 4.99735C4.24961 4.97213 4.37663 4.93983 4.5016 4.90058C4.72308 4.83456 4.93661 4.74414 5.13827 4.63097C5.34969 4.5222 5.55143 4.39545 5.74129 4.25212C5.68066 4.29929 5.79283 4.20496 5.80769 4.19126C5.84832 4.15414 5.88591 4.11427 5.92381 4.0741C5.92381 4.07258 5.97383 4.01324 5.94473 4.05098C5.91562 4.08871 5.96807 4.01507 5.97505 4.00533C5.98748 3.98586 5.99839 3.96516 6.01051 3.94447C6.05539 3.87114 6.01052 3.96364 6.02841 3.90674C6.14968 3.52545 5.98626 3.00541 5.79587 2.66399C5.74061 2.5653 5.67988 2.4698 5.61396 2.37794C5.65277 2.4318 5.58364 2.33838 5.5697 2.32378C5.52816 2.27448 5.4845 2.2264 5.43963 2.18015C5.36107 2.09854 5.27688 2.02258 5.18769 1.95284C5.24651 1.99787 5.12311 1.91024 5.10705 1.89928C5.05096 1.86246 4.99366 1.82747 4.93484 1.79491C4.87602 1.76235 4.8163 1.73222 4.75536 1.70362C4.70473 1.68019 4.74536 1.69845 4.75536 1.70362C4.71686 1.68749 4.67714 1.67319 4.63772 1.65919C4.51098 1.6147 4.38119 1.5795 4.24936 1.5539C4.2248 1.54903 4.19993 1.54477 4.17507 1.54051C4.01894 1.51343 4.21994 1.54325 4.1296 1.53473C4.06259 1.52834 3.9959 1.52347 3.9289 1.52165C3.78337 1.51769 3.63057 1.54843 3.48777 1.52895C3.44987 1.52408 3.41228 1.518 3.37438 1.51313C3.45412 1.52317 3.34619 1.51099 3.33194 1.50947C3.26676 1.50308 3.20187 1.49791 3.13639 1.49487C3.00879 1.48827 2.88089 1.49142 2.75378 1.5043C2.69557 1.51069 2.75772 1.5043 2.76681 1.50278C2.72892 1.50978 2.69102 1.51678 2.65373 1.5256C2.59436 1.53987 2.53585 1.55755 2.47849 1.57855C2.42604 1.59802 2.48122 1.57855 2.48971 1.57338C2.45545 1.59011 2.4218 1.60746 2.38875 1.62663C2.36904 1.63819 2.34964 1.65067 2.33024 1.66284C2.21321 1.73709 2.38723 1.60868 2.28112 1.7021C2.09012 1.86976 1.78027 1.90445 1.59503 1.7021C1.42374 1.51617 1.38796 1.19057 1.59169 1.01134Z" fill="#592E2E"/>
</svg>
